<svg xmlns="http://www.w3.org/2000/svg" xmlns:xlink="http://www.w3.org/1999/xlink" width="1080" zoomAndPan="magnify" viewBox="0 0 810 809.999993" height="1080" preserveAspectRatio="xMidYMid meet" version="1.0"><defs><g/><clipPath id="50f685b5a8"><path d="M 140.632812 33.449219 L 654.785156 33.449219 L 654.785156 563 L 140.632812 563 Z M 140.632812 33.449219 " clip-rule="nonzero"/></clipPath></defs><path fill="#ffdbb8" d="M 645.183594 256.667969 C 645.183594 256.667969 644.601562 263.539062 641.054688 263.507812 C 591.742188 262.96875 551.78125 275.039062 524.238281 303.839844 C 523.9375 304.15625 523.597656 304.425781 523.222656 304.648438 C 522.84375 304.871094 522.445312 305.035156 522.019531 305.144531 C 521.597656 305.25 521.167969 305.300781 520.730469 305.289062 C 520.296875 305.273438 519.867188 305.203125 519.453125 305.070312 C 500.714844 298.949219 481.488281 295.851562 461.777344 295.773438 C 450.824219 295.808594 439.964844 296.824219 429.195312 298.820312 C 418.421875 300.8125 407.917969 303.753906 397.675781 307.636719 C 356.402344 292.277344 315.859375 292.320312 275.902344 305.082031 C 275.484375 305.214844 275.058594 305.285156 274.621094 305.296875 C 274.183594 305.308594 273.75 305.261719 273.328125 305.152344 C 272.902344 305.042969 272.503906 304.878906 272.125 304.660156 C 271.75 304.4375 271.410156 304.167969 271.105469 303.851562 C 243.5625 275.050781 203.601562 262.976562 154.289062 263.515625 C 150.753906 263.515625 150.160156 256.679688 150.160156 256.679688 C 150.160156 256.679688 267.796875 154.789062 340.90625 91.640625 C 373.710938 63.292969 397.535156 42.761719 397.710938 42.761719 C 397.882812 42.761719 421.699219 63.257812 454.523438 91.640625 C 527.578125 154.789062 645.183594 256.667969 645.183594 256.667969 Z M 645.183594 256.667969 " fill-opacity="1" fill-rule="nonzero"/><path fill="#e5bb98" d="M 524.238281 303.839844 L 397.710938 42.753906 L 645.183594 256.667969 L 611.828125 264.824219 L 550.027344 277.574219 L 524.238281 303.839844 " fill-opacity="1" fill-rule="nonzero"/><path fill="#fffbf8" d="M 271.742188 303.839844 L 398.269531 42.753906 L 150.796875 256.667969 L 184.148438 264.824219 L 245.953125 277.574219 L 271.742188 303.839844 " fill-opacity="1" fill-rule="nonzero"/><path fill="#fff1e6" d="M 283.78125 298.1875 L 334.429688 291.445312 C 334.429688 291.445312 397.6875 307.628906 397.699219 303.839844 C 397.710938 300.054688 397.699219 42.785156 397.699219 42.785156 L 274.53125 299.957031 Z M 283.78125 298.1875 " fill-opacity="1" fill-rule="nonzero"/><path fill="#ffae0d" d="M 411.804688 492.492188 L 410.578125 492.492188 L 411.652344 451.003906 L 383.417969 448.683594 L 380.089844 493.828125 C 379.382812 494.527344 378.941406 495.363281 378.765625 496.34375 C 378.539062 497.65625 378.199219 498.941406 377.75 500.199219 C 377.296875 501.453125 376.742188 502.660156 376.078125 503.820312 C 375.414062 504.976562 374.65625 506.066406 373.804688 507.09375 C 372.949219 508.117188 372.011719 509.058594 370.992188 509.917969 C 369.972656 510.777344 368.886719 511.542969 367.734375 512.210938 C 366.582031 512.882812 365.378906 513.445312 364.125 513.902344 C 362.875 514.359375 361.59375 514.707031 360.28125 514.9375 C 358.96875 515.171875 357.644531 515.289062 356.3125 515.289062 C 354.976562 515.289062 353.65625 515.171875 352.34375 514.9375 C 351.03125 514.707031 349.746094 514.359375 348.496094 513.902344 C 347.242188 513.445312 346.039062 512.882812 344.886719 512.210938 C 343.734375 511.542969 342.648438 510.777344 341.628906 509.917969 C 340.609375 509.058594 339.671875 508.117188 338.820312 507.09375 C 337.964844 506.066406 337.207031 504.976562 336.542969 503.820312 C 335.882812 502.660156 335.324219 501.453125 334.875 500.199219 C 334.421875 498.941406 334.082031 497.65625 333.859375 496.34375 C 333.765625 495.804688 333.585938 495.296875 333.316406 494.824219 C 333.046875 494.351562 332.703125 493.9375 332.285156 493.585938 C 331.871094 493.234375 331.40625 492.964844 330.894531 492.773438 C 330.382812 492.585938 329.855469 492.492188 329.308594 492.492188 L 300.839844 492.492188 C 300.523438 492.488281 300.210938 492.519531 299.898438 492.582031 C 299.589844 492.644531 299.289062 492.738281 299 492.863281 C 298.710938 492.988281 298.433594 493.140625 298.175781 493.320312 C 297.917969 493.5 297.679688 493.707031 297.460938 493.9375 C 297.246094 494.167969 297.054688 494.417969 296.890625 494.6875 C 296.726562 494.957031 296.589844 495.242188 296.484375 495.539062 C 296.378906 495.835938 296.300781 496.144531 296.257812 496.457031 C 296.214844 496.769531 296.203125 497.082031 296.226562 497.398438 C 296.398438 499.253906 296.652344 501.097656 296.992188 502.929688 C 297.332031 504.761719 297.757812 506.574219 298.265625 508.363281 C 298.773438 510.15625 299.363281 511.921875 300.035156 513.660156 C 300.707031 515.394531 301.457031 517.097656 302.285156 518.765625 C 303.113281 520.433594 304.015625 522.0625 304.996094 523.644531 C 305.976562 525.230469 307.023438 526.765625 308.144531 528.253906 C 309.265625 529.742188 310.453125 531.171875 311.707031 532.550781 C 312.960938 533.925781 314.273438 535.242188 315.648438 536.5 C 317.023438 537.753906 318.453125 538.945312 319.9375 540.066406 C 321.421875 541.191406 322.957031 542.242188 324.539062 543.222656 C 326.121094 544.203125 327.742188 545.109375 329.410156 545.941406 C 331.074219 546.773438 332.777344 547.523438 334.511719 548.199219 C 336.246094 548.871094 338.007812 549.460938 339.796875 549.972656 C 341.589844 550.480469 343.398438 550.910156 345.226562 551.25 C 347.054688 551.59375 348.898438 551.851562 350.75 552.023438 C 352.605469 552.195312 354.460938 552.28125 356.320312 552.28125 C 358.183594 552.28125 360.039062 552.195312 361.894531 552.023438 C 363.746094 551.851562 365.585938 551.59375 367.417969 551.25 C 369.246094 550.910156 371.054688 550.480469 372.84375 549.972656 C 374.636719 549.460938 376.398438 548.871094 378.132812 548.195312 C 379.867188 547.523438 381.570312 546.773438 383.234375 545.941406 C 384.898438 545.109375 386.523438 544.203125 388.105469 543.222656 C 389.6875 542.242188 391.222656 541.191406 392.707031 540.066406 C 394.191406 538.945312 395.621094 537.753906 396.996094 536.5 C 398.371094 535.242188 399.683594 533.925781 400.9375 532.550781 C 402.191406 531.171875 403.378906 529.742188 404.5 528.253906 C 405.621094 526.765625 406.667969 525.230469 407.648438 523.644531 C 408.625 522.0625 409.53125 520.433594 410.359375 518.765625 C 411.1875 517.097656 411.9375 515.398438 412.609375 513.660156 C 413.28125 511.921875 413.871094 510.15625 414.378906 508.363281 C 414.886719 506.574219 415.308594 504.761719 415.652344 502.929688 C 415.992188 501.097656 416.246094 499.253906 416.417969 497.398438 C 416.4375 497.085938 416.425781 496.769531 416.382812 496.457031 C 416.339844 496.144531 416.261719 495.839844 416.15625 495.542969 C 416.050781 495.242188 415.914062 494.960938 415.75 494.691406 C 415.585938 494.421875 415.394531 494.171875 415.175781 493.941406 C 414.960938 493.710938 414.722656 493.503906 414.464844 493.324219 C 414.207031 493.144531 413.933594 492.988281 413.640625 492.863281 C 413.351562 492.742188 413.050781 492.644531 412.742188 492.582031 C 412.433594 492.519531 412.121094 492.488281 411.804688 492.492188 Z M 411.804688 492.492188 " fill-opacity="1" fill-rule="nonzero"/><g clip-path="url(#50f685b5a8)"><path fill="#181b30" d="M 651.226562 249.667969 C 650.054688 248.652344 532.792969 147.066406 460.558594 84.617188 C 444.144531 70.445312 429.972656 58.210938 419.886719 49.539062 C 414.84375 45.222656 410.8125 41.726562 408.035156 39.355469 C 402.085938 34.285156 401.179688 33.507812 397.710938 33.507812 C 394.238281 33.507812 393.324219 34.285156 387.417969 39.375 C 384.636719 41.75 380.605469 45.210938 375.5625 49.558594 C 365.476562 58.1875 351.316406 70.464844 334.914062 84.640625 C 262.710938 147.066406 145.40625 248.609375 144.234375 249.6875 L 140.632812 252.75 L 141.03125 257.445312 C 141.808594 266.625 147.152344 272.761719 154.351562 272.761719 L 154.472656 272.761719 C 203.882812 272.210938 239.863281 284.476562 264.53125 310.257812 C 265.433594 311.199219 266.441406 311.996094 267.566406 312.652344 C 268.691406 313.308594 269.882812 313.796875 271.140625 314.117188 C 272.402344 314.4375 273.683594 314.578125 274.980469 314.539062 C 276.28125 314.5 277.550781 314.28125 278.789062 313.882812 C 316.261719 301.898438 352.199219 302.015625 388.472656 314.195312 L 388.472656 437.710938 L 383.863281 437.710938 C 382.953125 437.714844 382.054688 437.804688 381.167969 437.984375 C 380.277344 438.160156 379.414062 438.425781 378.574219 438.773438 C 377.738281 439.121094 376.941406 439.546875 376.1875 440.050781 C 375.429688 440.554688 374.734375 441.125 374.089844 441.765625 C 373.449219 442.40625 372.875 443.105469 372.367188 443.859375 C 371.859375 444.609375 371.433594 445.40625 371.082031 446.242188 C 370.730469 447.082031 370.464844 447.945312 370.285156 448.835938 C 370.101562 449.722656 370.007812 450.625 370.003906 451.53125 L 369.863281 492.523438 C 369.882812 493.378906 369.820312 494.226562 369.679688 495.070312 C 369.539062 495.914062 369.324219 496.734375 369.027344 497.539062 C 368.730469 498.339844 368.363281 499.105469 367.921875 499.839844 C 367.480469 500.570312 366.976562 501.253906 366.40625 501.890625 C 365.835938 502.527344 365.210938 503.105469 364.53125 503.625 C 363.851562 504.140625 363.128906 504.59375 362.363281 504.972656 C 361.601562 505.355469 360.808594 505.660156 359.984375 505.890625 C 359.164062 506.125 358.328125 506.277344 357.476562 506.347656 C 356.625 506.421875 355.773438 506.414062 354.925781 506.324219 C 354.074219 506.238281 353.242188 506.070312 352.421875 505.824219 C 351.605469 505.578125 350.816406 505.257812 350.0625 504.863281 C 349.304688 504.46875 348.589844 504.007812 347.917969 503.476562 C 347.25 502.945312 346.636719 502.359375 346.078125 501.710938 C 345.519531 501.066406 345.023438 500.371094 344.597656 499.632812 C 344.167969 498.890625 343.8125 498.117188 343.53125 497.3125 C 343.25 496.503906 343.046875 495.675781 342.921875 494.832031 C 342.789062 494.03125 342.585938 493.246094 342.3125 492.480469 C 342.042969 491.714844 341.703125 490.976562 341.304688 490.269531 C 340.902344 489.5625 340.441406 488.898438 339.921875 488.273438 C 339.402344 487.648438 338.832031 487.070312 338.210938 486.546875 C 337.59375 486.023438 336.929688 485.554688 336.230469 485.148438 C 335.527344 484.738281 334.792969 484.394531 334.03125 484.117188 C 333.265625 483.839844 332.484375 483.628906 331.6875 483.488281 C 330.886719 483.347656 330.078125 483.277344 329.265625 483.277344 L 300.839844 483.277344 C 298.898438 483.28125 297.039062 483.671875 295.265625 484.449219 C 293.488281 485.230469 291.941406 486.332031 290.621094 487.753906 C 289.324219 489.164062 288.359375 490.777344 287.734375 492.589844 C 287.105469 494.402344 286.871094 496.265625 287.023438 498.175781 C 287.207031 500.386719 287.492188 502.585938 287.886719 504.769531 C 288.28125 506.953125 288.777344 509.113281 289.375 511.25 C 289.972656 513.386719 290.671875 515.488281 291.472656 517.558594 C 292.273438 519.625 293.171875 521.652344 294.164062 523.636719 C 295.160156 525.621094 296.246094 527.550781 297.421875 529.429688 C 298.601562 531.308594 299.867188 533.128906 301.21875 534.886719 C 302.570312 536.644531 304.003906 538.335938 305.515625 539.957031 C 307.03125 541.578125 308.617188 543.121094 310.277344 544.59375 C 311.941406 546.0625 313.667969 547.449219 315.460938 548.75 C 317.253906 550.054688 319.105469 551.269531 321.015625 552.398438 C 322.925781 553.523438 324.882812 554.554688 326.894531 555.496094 C 328.902344 556.433594 330.949219 557.273438 333.039062 558.019531 C 335.128906 558.761719 337.246094 559.402344 339.394531 559.941406 C 341.546875 560.480469 343.71875 560.917969 345.910156 561.25 C 348.101562 561.582031 350.304688 561.808594 352.515625 561.929688 C 354.730469 562.050781 356.945312 562.066406 359.160156 561.976562 C 361.375 561.886719 363.578125 561.6875 365.773438 561.386719 C 367.972656 561.085938 370.148438 560.679688 372.304688 560.167969 C 374.460938 559.660156 376.589844 559.046875 378.6875 558.332031 C 380.789062 557.617188 382.847656 556.804688 384.867188 555.894531 C 386.890625 554.984375 388.863281 553.980469 390.789062 552.878906 C 392.714844 551.777344 394.582031 550.589844 396.394531 549.308594 C 398.203125 548.03125 399.949219 546.667969 401.632812 545.222656 C 403.3125 543.777344 404.921875 542.253906 406.457031 540.652344 C 407.992188 539.054688 409.449219 537.382812 410.824219 535.644531 C 412.199219 533.90625 413.492188 532.101562 414.695312 530.238281 C 415.898438 528.378906 417.011719 526.460938 418.03125 524.492188 C 419.054688 522.523438 419.976562 520.507812 420.808594 518.449219 C 421.636719 516.390625 422.363281 514.300781 422.992188 512.171875 C 423.621094 510.042969 424.148438 507.890625 424.570312 505.710938 C 424.992188 503.535156 425.3125 501.339844 425.523438 499.132812 C 425.738281 496.925781 425.84375 494.710938 425.847656 492.492188 L 425.683594 451.5625 C 425.679688 450.65625 425.589844 449.757812 425.40625 448.867188 C 425.226562 447.976562 424.960938 447.109375 424.613281 446.273438 C 424.261719 445.433594 423.835938 444.640625 423.328125 443.886719 C 422.820312 443.132812 422.246094 442.433594 421.605469 441.792969 C 420.960938 441.152344 420.261719 440.578125 419.507812 440.074219 C 418.75 439.570312 417.953125 439.144531 417.117188 438.796875 C 416.277344 438.453125 415.414062 438.1875 414.523438 438.011719 C 413.632812 437.835938 412.734375 437.746094 411.828125 437.746094 L 406.957031 437.746094 L 406.957031 314.1875 C 424.730469 308.152344 443.003906 305.097656 461.777344 305.027344 C 480.523438 305.125 498.804688 308.078125 516.628906 313.894531 C 517.867188 314.289062 519.136719 314.503906 520.4375 314.539062 C 521.738281 314.574219 523.015625 314.429688 524.273438 314.109375 C 525.535156 313.785156 526.726562 313.292969 527.847656 312.636719 C 528.96875 311.980469 529.976562 311.179688 530.875 310.238281 C 555.5 284.476562 591.503906 272.199219 640.925781 272.761719 L 641.042969 272.761719 C 648.234375 272.761719 653.566406 266.625 654.355469 257.445312 L 654.753906 252.75 Z M 407.363281 492.492188 C 407.371094 494.074219 407.308594 495.652344 407.167969 497.226562 C 407.03125 498.804688 406.820312 500.367188 406.535156 501.925781 C 406.25 503.480469 405.894531 505.019531 405.46875 506.542969 C 405.042969 508.066406 404.546875 509.566406 403.980469 511.042969 C 403.414062 512.519531 402.78125 513.96875 402.082031 515.386719 C 401.378906 516.804688 400.617188 518.1875 399.789062 519.535156 C 398.957031 520.878906 398.070312 522.1875 397.121094 523.449219 C 396.171875 524.714844 395.164062 525.933594 394.101562 527.105469 C 393.039062 528.273438 391.925781 529.394531 390.757812 530.460938 C 389.589844 531.527344 388.378906 532.539062 387.117188 533.492188 C 385.859375 534.449219 384.554688 535.339844 383.214844 536.175781 C 381.871094 537.007812 380.492188 537.777344 379.078125 538.484375 C 377.664062 539.1875 376.21875 539.828125 374.746094 540.398438 C 373.269531 540.96875 371.773438 541.46875 370.253906 541.902344 C 368.734375 542.332031 367.195312 542.695312 365.644531 542.984375 C 364.089844 543.273438 362.527344 543.488281 360.953125 543.632812 C 359.378906 543.773438 357.800781 543.84375 356.222656 543.84375 C 354.640625 543.839844 353.0625 543.761719 351.492188 543.613281 C 349.917969 543.464844 348.355469 543.242188 346.800781 542.945312 C 345.25 542.652344 343.714844 542.285156 342.195312 541.847656 C 340.675781 541.410156 339.183594 540.902344 337.710938 540.328125 C 336.238281 539.75 334.796875 539.105469 333.386719 538.398438 C 331.972656 537.6875 330.597656 536.910156 329.257812 536.074219 C 327.917969 535.234375 326.621094 534.335938 325.363281 533.375 C 324.105469 532.417969 322.898438 531.402344 321.734375 530.332031 C 320.570312 529.257812 319.460938 528.136719 318.402344 526.960938 C 317.34375 525.785156 316.34375 524.566406 315.398438 523.296875 C 314.453125 522.027344 313.570312 520.71875 312.746094 519.371094 C 311.921875 518.019531 311.164062 516.632812 310.46875 515.214844 C 309.773438 513.792969 309.148438 512.34375 308.585938 510.863281 C 308.027344 509.386719 307.535156 507.882812 307.113281 506.359375 C 306.691406 504.835938 306.34375 503.292969 306.066406 501.734375 L 325.601562 501.734375 C 325.878906 502.648438 326.191406 503.546875 326.546875 504.429688 C 326.898438 505.3125 327.292969 506.179688 327.722656 507.027344 C 328.152344 507.875 328.621094 508.703125 329.125 509.511719 C 329.628906 510.316406 330.167969 511.101562 330.742188 511.859375 C 331.316406 512.617188 331.925781 513.351562 332.5625 514.054688 C 333.203125 514.757812 333.871094 515.433594 334.570312 516.078125 C 335.273438 516.722656 336 517.335938 336.753906 517.917969 C 337.507812 518.496094 338.285156 519.042969 339.085938 519.554688 C 339.890625 520.0625 340.714844 520.539062 341.558594 520.976562 C 342.402344 521.414062 343.265625 521.8125 344.144531 522.171875 C 345.023438 522.53125 345.917969 522.855469 346.828125 523.132812 C 347.738281 523.414062 348.65625 523.65625 349.585938 523.855469 C 350.515625 524.050781 351.453125 524.210938 352.398438 524.324219 C 353.339844 524.441406 354.289062 524.511719 355.238281 524.542969 C 356.191406 524.574219 357.140625 524.5625 358.089844 524.507812 C 359.039062 524.453125 359.984375 524.359375 360.925781 524.21875 C 361.867188 524.082031 362.796875 523.902344 363.722656 523.679688 C 364.648438 523.460938 365.5625 523.195312 366.464844 522.894531 C 367.363281 522.589844 368.25 522.25 369.121094 521.867188 C 369.992188 521.484375 370.847656 521.066406 371.679688 520.605469 C 372.511719 520.148438 373.324219 519.65625 374.113281 519.125 C 374.90625 518.59375 375.667969 518.03125 376.410156 517.433594 C 377.148438 516.832031 377.859375 516.203125 378.542969 515.542969 C 379.226562 514.878906 379.878906 514.1875 380.5 513.46875 C 381.125 512.746094 381.710938 512 382.269531 511.230469 C 382.824219 510.457031 383.34375 509.660156 383.828125 508.839844 C 384.3125 508.023438 384.761719 507.183594 385.171875 506.324219 C 385.582031 505.464844 385.953125 504.589844 386.285156 503.699219 C 386.617188 502.804688 386.90625 501.902344 387.160156 500.984375 C 387.410156 500.066406 387.621094 499.136719 387.789062 498.199219 C 387.960938 497.265625 388.085938 496.320312 388.171875 495.375 C 388.257812 494.425781 388.300781 493.476562 388.300781 492.523438 L 388.429688 456.214844 L 407.183594 456.214844 Z M 519.550781 295.414062 C 500.734375 289.566406 481.476562 286.605469 461.777344 286.527344 C 450.855469 286.566406 440.019531 287.535156 429.261719 289.425781 C 418.507812 291.320312 407.988281 294.109375 397.710938 297.800781 C 387.414062 294.109375 376.875 291.320312 366.101562 289.4375 C 355.328125 287.554688 344.472656 286.601562 333.535156 286.582031 C 313.863281 286.640625 294.628906 289.585938 275.835938 295.414062 C 250.179688 269.796875 213.601562 256.03125 166.992188 254.421875 C 197.640625 227.84375 287.53125 150.011719 346.941406 98.640625 L 350.441406 95.621094 C 358.003906 98.445312 365.757812 100.570312 373.699219 102 C 381.644531 103.429688 389.648438 104.140625 397.71875 104.132812 C 405.789062 104.140625 413.792969 103.429688 421.734375 102 C 429.675781 100.570312 437.425781 98.445312 444.984375 95.621094 L 448.476562 98.640625 C 507.890625 149.992188 597.789062 227.84375 628.445312 254.402344 C 581.773438 256.042969 545.1875 269.816406 519.550781 295.414062 Z M 519.550781 295.414062 " fill-opacity="1" fill-rule="nonzero"/></g><g fill="#181b30" fill-opacity="1"><g transform="translate(87.32639, 688.813566)"><g><path d="M 50.453125 1.328125 C 41.085938 1.328125 33.039062 -0.472656 26.3125 -4.078125 C 19.582031 -7.679688 14.4375 -12.765625 10.875 -19.328125 C 7.3125 -25.898438 5.53125 -33.59375 5.53125 -42.40625 C 5.53125 -51.21875 7.3125 -58.882812 10.875 -65.40625 C 14.4375 -71.9375 19.582031 -77.003906 26.3125 -80.609375 C 33.039062 -84.210938 41.085938 -86.015625 50.453125 -86.015625 C 54.140625 -86.015625 57.960938 -85.59375 61.921875 -84.75 C 65.890625 -83.914062 69.394531 -82.65625 72.4375 -80.96875 C 74.6875 -79.769531 76.25 -78.25 77.125 -76.40625 C 78.007812 -74.5625 78.332031 -72.675781 78.09375 -70.75 C 77.851562 -68.832031 77.148438 -67.113281 75.984375 -65.59375 C 74.828125 -64.070312 73.363281 -63.050781 71.59375 -62.53125 C 69.832031 -62.007812 67.914062 -62.269531 65.84375 -63.3125 C 61.113281 -65.632812 56.265625 -66.796875 51.296875 -66.796875 C 43.847656 -66.796875 38.238281 -64.691406 34.46875 -60.484375 C 30.707031 -56.285156 28.828125 -50.257812 28.828125 -42.40625 C 28.828125 -34.476562 30.707031 -28.410156 34.46875 -24.203125 C 38.238281 -20.003906 43.847656 -17.90625 51.296875 -17.90625 C 53.378906 -17.90625 55.617188 -18.164062 58.015625 -18.6875 C 60.421875 -19.207031 62.785156 -20.023438 65.109375 -21.140625 C 67.515625 -22.179688 69.65625 -22.460938 71.53125 -21.984375 C 73.414062 -21.503906 74.957031 -20.539062 76.15625 -19.09375 C 77.363281 -17.65625 78.109375 -15.992188 78.390625 -14.109375 C 78.671875 -12.234375 78.410156 -10.375 77.609375 -8.53125 C 76.804688 -6.6875 75.328125 -5.203125 73.171875 -4.078125 C 70.359375 -2.398438 66.890625 -1.078125 62.765625 -0.109375 C 58.648438 0.847656 54.546875 1.328125 50.453125 1.328125 Z M 50.453125 1.328125 "/></g></g></g><g fill="#181b30" fill-opacity="1"><g transform="translate(169.984669, 688.813566)"><g><path d="M 18.734375 1.078125 C 15.210938 1.078125 12.488281 0.117188 10.5625 -1.796875 C 8.644531 -3.722656 7.6875 -6.488281 7.6875 -10.09375 L 7.6875 -73.53125 C 7.6875 -77.132812 8.644531 -79.894531 10.5625 -81.8125 C 12.488281 -83.738281 15.253906 -84.703125 18.859375 -84.703125 L 48.421875 -84.703125 C 58.023438 -84.703125 65.453125 -82.359375 70.703125 -77.671875 C 75.953125 -72.984375 78.578125 -66.472656 78.578125 -58.140625 C 78.578125 -51.816406 76.992188 -46.507812 73.828125 -42.21875 C 70.660156 -37.9375 66.070312 -34.957031 60.0625 -33.28125 C 64.550781 -32.082031 68.160156 -29 70.890625 -24.03125 L 76.890625 -13.21875 C 78.171875 -10.8125 78.75 -8.523438 78.625 -6.359375 C 78.507812 -4.203125 77.648438 -2.421875 76.046875 -1.015625 C 74.441406 0.378906 72.078125 1.078125 68.953125 1.078125 C 65.835938 1.078125 63.296875 0.457031 61.328125 -0.78125 C 59.367188 -2.019531 57.628906 -4.039062 56.109375 -6.84375 L 45.171875 -26.90625 C 44.210938 -28.664062 42.988281 -29.882812 41.5 -30.5625 C 40.019531 -31.25 38.320312 -31.59375 36.40625 -31.59375 L 29.796875 -31.59375 L 29.796875 -10.09375 C 29.796875 -6.488281 28.851562 -3.722656 26.96875 -1.796875 C 25.082031 0.117188 22.335938 1.078125 18.734375 1.078125 Z M 29.796875 -47.21875 L 44.453125 -47.21875 C 53.179688 -47.21875 57.546875 -50.660156 57.546875 -57.546875 C 57.546875 -64.359375 53.179688 -67.765625 44.453125 -67.765625 L 29.796875 -67.765625 Z M 29.796875 -47.21875 "/></g></g></g><g fill="#181b30" fill-opacity="1"><g transform="translate(254.805511, 688.813566)"><g><path d="M 19.21875 0 C 11.53125 0 7.6875 -3.800781 7.6875 -11.40625 L 7.6875 -73.28125 C 7.6875 -80.894531 11.53125 -84.703125 19.21875 -84.703125 L 59.953125 -84.703125 C 65.710938 -84.703125 68.59375 -81.898438 68.59375 -76.296875 C 68.59375 -70.523438 65.710938 -67.640625 59.953125 -67.640625 L 28.828125 -67.640625 L 28.828125 -51.546875 L 57.3125 -51.546875 C 63.070312 -51.546875 65.953125 -48.703125 65.953125 -43.015625 C 65.953125 -37.328125 63.070312 -34.484375 57.3125 -34.484375 L 28.828125 -34.484375 L 28.828125 -17.0625 L 59.953125 -17.0625 C 65.710938 -17.0625 68.59375 -14.21875 68.59375 -8.53125 C 68.59375 -2.84375 65.710938 0 59.953125 0 Z M 19.21875 0 "/></g></g></g><g fill="#181b30" fill-opacity="1"><g transform="translate(328.573231, 688.813566)"><g><path d="M 11.65625 1.078125 C 7.882812 1.078125 5.117188 -0.203125 3.359375 -2.765625 C 1.597656 -5.328125 1.597656 -8.53125 3.359375 -12.375 L 33.28125 -76.765625 C 34.71875 -79.890625 36.476562 -82.171875 38.5625 -83.609375 C 40.644531 -85.054688 43.085938 -85.78125 45.890625 -85.78125 C 48.617188 -85.78125 51.019531 -85.054688 53.09375 -83.609375 C 55.175781 -82.171875 56.941406 -79.890625 58.390625 -76.765625 L 88.296875 -12.375 C 90.140625 -8.445312 90.21875 -5.222656 88.53125 -2.703125 C 86.851562 -0.179688 84.210938 1.078125 80.609375 1.078125 C 77.410156 1.078125 74.945312 0.359375 73.21875 -1.078125 C 71.5 -2.523438 69.957031 -4.847656 68.59375 -8.046875 L 64.75 -17.1875 L 26.90625 -17.1875 L 23.0625 -8.046875 C 21.625 -4.847656 20.144531 -2.523438 18.625 -1.078125 C 17.101562 0.359375 14.78125 1.078125 11.65625 1.078125 Z M 45.65625 -61.625 L 34.125 -34.125 L 57.421875 -34.125 L 45.890625 -61.625 Z M 45.65625 -61.625 "/></g></g></g><g fill="#181b30" fill-opacity="1"><g transform="translate(420.24223, 688.813566)"><g><path d="M 38.6875 1.078125 C 35.164062 1.078125 32.441406 0.117188 30.515625 -1.796875 C 28.585938 -3.722656 27.625 -6.488281 27.625 -10.09375 L 27.625 -66.671875 L 8.765625 -66.671875 C 2.679688 -66.671875 -0.359375 -69.675781 -0.359375 -75.6875 C -0.359375 -81.695312 2.679688 -84.703125 8.765625 -84.703125 L 68.59375 -84.703125 C 74.6875 -84.703125 77.734375 -81.695312 77.734375 -75.6875 C 77.734375 -69.675781 74.6875 -66.671875 68.59375 -66.671875 L 49.734375 -66.671875 L 49.734375 -10.09375 C 49.734375 -6.488281 48.789062 -3.722656 46.90625 -1.796875 C 45.03125 0.117188 42.289062 1.078125 38.6875 1.078125 Z M 38.6875 1.078125 "/></g></g></g><g fill="#181b30" fill-opacity="1"><g transform="translate(497.614246, 688.813566)"><g><path d="M 18.734375 1.078125 C 15.210938 1.078125 12.488281 0.117188 10.5625 -1.796875 C 8.644531 -3.722656 7.6875 -6.53125 7.6875 -10.21875 L 7.6875 -74.484375 C 7.6875 -78.171875 8.644531 -80.972656 10.5625 -82.890625 C 12.488281 -84.816406 15.210938 -85.78125 18.734375 -85.78125 C 22.265625 -85.78125 24.988281 -84.816406 26.90625 -82.890625 C 28.832031 -80.972656 29.796875 -78.171875 29.796875 -74.484375 L 29.796875 -10.21875 C 29.796875 -6.53125 28.851562 -3.722656 26.96875 -1.796875 C 25.082031 0.117188 22.335938 1.078125 18.734375 1.078125 Z M 18.734375 1.078125 "/></g></g></g><g fill="#181b30" fill-opacity="1"><g transform="translate(535.098815, 688.813566)"><g><path d="M 44.6875 1.078125 C 41.644531 1.078125 39.179688 0.4375 37.296875 -0.84375 C 35.421875 -2.125 33.84375 -4.164062 32.5625 -6.96875 L 3.484375 -71.125 C 2.203125 -73.925781 1.800781 -76.445312 2.28125 -78.6875 C 2.757812 -80.9375 3.878906 -82.679688 5.640625 -83.921875 C 7.410156 -85.160156 9.613281 -85.78125 12.25 -85.78125 C 15.457031 -85.78125 17.898438 -85.054688 19.578125 -83.609375 C 21.265625 -82.171875 22.707031 -80.050781 23.90625 -77.25 L 45.046875 -28.234375 L 66.203125 -77.375 C 67.398438 -80.175781 68.835938 -82.273438 70.515625 -83.671875 C 72.203125 -85.078125 74.566406 -85.78125 77.609375 -85.78125 C 80.085938 -85.78125 82.164062 -85.140625 83.84375 -83.859375 C 85.53125 -82.578125 86.59375 -80.832031 87.03125 -78.625 C 87.476562 -76.425781 87.0625 -73.925781 85.78125 -71.125 L 56.59375 -6.96875 C 55.382812 -4.164062 53.835938 -2.125 51.953125 -0.84375 C 50.078125 0.4375 47.65625 1.078125 44.6875 1.078125 Z M 44.6875 1.078125 "/></g></g></g><g fill="#181b30" fill-opacity="1"><g transform="translate(624.24482, 688.813566)"><g><path d="M 19.21875 0 C 11.53125 0 7.6875 -3.800781 7.6875 -11.40625 L 7.6875 -73.28125 C 7.6875 -80.894531 11.53125 -84.703125 19.21875 -84.703125 L 59.953125 -84.703125 C 65.710938 -84.703125 68.59375 -81.898438 68.59375 -76.296875 C 68.59375 -70.523438 65.710938 -67.640625 59.953125 -67.640625 L 28.828125 -67.640625 L 28.828125 -51.546875 L 57.3125 -51.546875 C 63.070312 -51.546875 65.953125 -48.703125 65.953125 -43.015625 C 65.953125 -37.328125 63.070312 -34.484375 57.3125 -34.484375 L 28.828125 -34.484375 L 28.828125 -17.0625 L 59.953125 -17.0625 C 65.710938 -17.0625 68.59375 -14.21875 68.59375 -8.53125 C 68.59375 -2.84375 65.710938 0 59.953125 0 Z M 19.21875 0 "/></g></g></g><g fill="#181b30" fill-opacity="1"><g transform="translate(171.921965, 763.322458)"><g><path d="M 17.796875 0.5 C 14.898438 0.5 12.363281 0.015625 10.1875 -0.953125 C 8.007812 -1.929688 6.328125 -3.429688 5.140625 -5.453125 C 3.953125 -7.484375 3.359375 -10.066406 3.359375 -13.203125 L 3.359375 -33.375 C 3.359375 -33.738281 3.472656 -34.035156 3.703125 -34.265625 C 3.941406 -34.492188 4.222656 -34.609375 4.546875 -34.609375 L 9.984375 -34.609375 C 10.347656 -34.609375 10.644531 -34.492188 10.875 -34.265625 C 11.101562 -34.035156 11.21875 -33.738281 11.21875 -33.375 L 11.21875 -13.25 C 11.21875 -10.84375 11.796875 -9.046875 12.953125 -7.859375 C 14.109375 -6.671875 15.722656 -6.078125 17.796875 -6.078125 C 19.847656 -6.078125 21.445312 -6.671875 22.59375 -7.859375 C 23.75 -9.046875 24.328125 -10.84375 24.328125 -13.25 L 24.328125 -33.375 C 24.328125 -33.738281 24.453125 -34.035156 24.703125 -34.265625 C 24.953125 -34.492188 25.238281 -34.609375 25.5625 -34.609375 L 31 -34.609375 C 31.332031 -34.609375 31.613281 -34.492188 31.84375 -34.265625 C 32.070312 -34.035156 32.1875 -33.738281 32.1875 -33.375 L 32.1875 -13.203125 C 32.1875 -10.066406 31.601562 -7.484375 30.4375 -5.453125 C 29.269531 -3.429688 27.601562 -1.929688 25.4375 -0.953125 C 23.28125 0.015625 20.734375 0.5 17.796875 0.5 Z M 17.796875 0.5 "/></g></g></g><g fill="#181b30" fill-opacity="1"><g transform="translate(232.213727, 763.322458)"><g><path d="M 4.890625 0 C 4.535156 0 4.238281 -0.113281 4 -0.34375 C 3.769531 -0.570312 3.65625 -0.867188 3.65625 -1.234375 L 3.65625 -33.375 C 3.65625 -33.738281 3.769531 -34.035156 4 -34.265625 C 4.238281 -34.492188 4.535156 -34.609375 4.890625 -34.609375 L 9.546875 -34.609375 C 10.035156 -34.609375 10.40625 -34.476562 10.65625 -34.21875 C 10.90625 -33.957031 11.0625 -33.757812 11.125 -33.625 L 20.28125 -16.90625 L 29.421875 -33.625 C 29.492188 -33.757812 29.648438 -33.957031 29.890625 -34.21875 C 30.140625 -34.476562 30.507812 -34.609375 31 -34.609375 L 35.609375 -34.609375 C 35.972656 -34.609375 36.269531 -34.492188 36.5 -34.265625 C 36.726562 -34.035156 36.84375 -33.738281 36.84375 -33.375 L 36.84375 -1.234375 C 36.84375 -0.867188 36.726562 -0.570312 36.5 -0.34375 C 36.269531 -0.113281 35.972656 0 35.609375 0 L 30.5625 0 C 30.226562 0 29.945312 -0.113281 29.71875 -0.34375 C 29.488281 -0.570312 29.375 -0.867188 29.375 -1.234375 L 29.375 -21.171875 L 23.09375 -9.453125 C 22.957031 -9.148438 22.757812 -8.882812 22.5 -8.65625 C 22.238281 -8.425781 21.875 -8.3125 21.40625 -8.3125 L 19.09375 -8.3125 C 18.664062 -8.3125 18.316406 -8.425781 18.046875 -8.65625 C 17.785156 -8.882812 17.570312 -9.148438 17.40625 -9.453125 L 11.171875 -21.171875 L 11.171875 -1.234375 C 11.171875 -0.867188 11.054688 -0.570312 10.828125 -0.34375 C 10.597656 -0.113281 10.300781 0 9.9375 0 Z M 4.890625 0 "/></g></g></g><g fill="#181b30" fill-opacity="1"><g transform="translate(297.450329, 763.322458)"><g><path d="M 4.84375 0 C 4.519531 0 4.238281 -0.113281 4 -0.34375 C 3.769531 -0.570312 3.65625 -0.867188 3.65625 -1.234375 L 3.65625 -33.375 C 3.65625 -33.738281 3.769531 -34.035156 4 -34.265625 C 4.238281 -34.492188 4.519531 -34.609375 4.84375 -34.609375 L 19.578125 -34.609375 C 22.316406 -34.609375 24.566406 -34.210938 26.328125 -33.421875 C 28.097656 -32.640625 29.394531 -31.519531 30.21875 -30.0625 C 31.039062 -28.613281 31.453125 -26.914062 31.453125 -24.96875 C 31.453125 -23.75 31.226562 -22.675781 30.78125 -21.75 C 30.332031 -20.832031 29.785156 -20.078125 29.140625 -19.484375 C 28.503906 -18.890625 27.890625 -18.445312 27.296875 -18.15625 C 28.585938 -17.5625 29.722656 -16.578125 30.703125 -15.203125 C 31.691406 -13.835938 32.1875 -12.210938 32.1875 -10.328125 C 32.1875 -8.253906 31.71875 -6.441406 30.78125 -4.890625 C 29.84375 -3.347656 28.46875 -2.144531 26.65625 -1.28125 C 24.84375 -0.425781 22.632812 0 20.03125 0 Z M 11.515625 -5.828125 L 19.09375 -5.828125 C 20.707031 -5.828125 21.925781 -6.28125 22.75 -7.1875 C 23.570312 -8.101562 23.984375 -9.171875 23.984375 -10.390625 C 23.984375 -11.671875 23.5625 -12.75 22.71875 -13.625 C 21.882812 -14.5 20.675781 -14.9375 19.09375 -14.9375 L 11.515625 -14.9375 Z M 11.515625 -20.625 L 18.640625 -20.625 C 20.191406 -20.625 21.351562 -21.007812 22.125 -21.78125 C 22.90625 -22.5625 23.296875 -23.5625 23.296875 -24.78125 C 23.296875 -26 22.90625 -26.96875 22.125 -27.6875 C 21.351562 -28.414062 20.191406 -28.78125 18.640625 -28.78125 L 11.515625 -28.78125 Z M 11.515625 -20.625 "/></g></g></g><g fill="#181b30" fill-opacity="1"><g transform="translate(356.555313, 763.322458)"><g><path d="M 4.84375 0 C 4.519531 0 4.238281 -0.113281 4 -0.34375 C 3.769531 -0.570312 3.65625 -0.867188 3.65625 -1.234375 L 3.65625 -33.375 C 3.65625 -33.738281 3.769531 -34.035156 4 -34.265625 C 4.238281 -34.492188 4.519531 -34.609375 4.84375 -34.609375 L 18 -34.609375 C 22.125 -34.609375 25.367188 -33.660156 27.734375 -31.765625 C 30.109375 -29.878906 31.296875 -27.15625 31.296875 -23.59375 C 31.296875 -21.1875 30.71875 -19.171875 29.5625 -17.546875 C 28.414062 -15.929688 26.867188 -14.734375 24.921875 -13.953125 L 31.953125 -1.578125 C 32.046875 -1.378906 32.09375 -1.195312 32.09375 -1.03125 C 32.09375 -0.769531 31.984375 -0.53125 31.765625 -0.3125 C 31.554688 -0.101562 31.320312 0 31.0625 0 L 25.515625 0 C 24.921875 0 24.472656 -0.15625 24.171875 -0.46875 C 23.878906 -0.78125 23.671875 -1.066406 23.546875 -1.328125 L 17.5 -12.65625 L 11.515625 -12.65625 L 11.515625 -1.234375 C 11.515625 -0.867188 11.398438 -0.570312 11.171875 -0.34375 C 10.941406 -0.113281 10.644531 0 10.28125 0 Z M 11.515625 -18.9375 L 17.90625 -18.9375 C 19.6875 -18.9375 21.007812 -19.347656 21.875 -20.171875 C 22.75 -20.992188 23.1875 -22.148438 23.1875 -23.640625 C 23.1875 -25.117188 22.757812 -26.285156 21.90625 -27.140625 C 21.050781 -28.003906 19.71875 -28.4375 17.90625 -28.4375 L 11.515625 -28.4375 Z M 11.515625 -18.9375 "/></g></g></g><g fill="#181b30" fill-opacity="1"><g transform="translate(415.017486, 763.322458)"><g><path d="M 4.84375 0 C 4.519531 0 4.238281 -0.113281 4 -0.34375 C 3.769531 -0.570312 3.65625 -0.867188 3.65625 -1.234375 L 3.65625 -33.375 C 3.65625 -33.738281 3.769531 -34.035156 4 -34.265625 C 4.238281 -34.492188 4.519531 -34.609375 4.84375 -34.609375 L 27.296875 -34.609375 C 27.660156 -34.609375 27.957031 -34.492188 28.1875 -34.265625 C 28.414062 -34.035156 28.53125 -33.738281 28.53125 -33.375 L 28.53125 -29.421875 C 28.53125 -29.054688 28.414062 -28.757812 28.1875 -28.53125 C 27.957031 -28.300781 27.660156 -28.1875 27.296875 -28.1875 L 11.28125 -28.1875 L 11.28125 -20.46875 L 26.203125 -20.46875 C 26.566406 -20.46875 26.863281 -20.351562 27.09375 -20.125 C 27.332031 -19.894531 27.453125 -19.597656 27.453125 -19.234375 L 27.453125 -15.578125 C 27.453125 -15.242188 27.332031 -14.953125 27.09375 -14.703125 C 26.863281 -14.460938 26.566406 -14.34375 26.203125 -14.34375 L 11.28125 -14.34375 L 11.28125 -6.421875 L 27.6875 -6.421875 C 28.050781 -6.421875 28.347656 -6.304688 28.578125 -6.078125 C 28.816406 -5.847656 28.9375 -5.550781 28.9375 -5.1875 L 28.9375 -1.234375 C 28.9375 -0.867188 28.816406 -0.570312 28.578125 -0.34375 C 28.347656 -0.113281 28.050781 0 27.6875 0 Z M 4.84375 0 "/></g></g></g><g fill="#181b30" fill-opacity="1"><g transform="translate(470.957756, 763.322458)"><g><path d="M 4.84375 0 C 4.519531 0 4.238281 -0.113281 4 -0.34375 C 3.769531 -0.570312 3.65625 -0.867188 3.65625 -1.234375 L 3.65625 -33.375 C 3.65625 -33.738281 3.769531 -34.035156 4 -34.265625 C 4.238281 -34.492188 4.519531 -34.609375 4.84375 -34.609375 L 10.4375 -34.609375 C 10.757812 -34.609375 11.035156 -34.492188 11.265625 -34.265625 C 11.503906 -34.035156 11.625 -33.738281 11.625 -33.375 L 11.625 -6.671875 L 26.953125 -6.671875 C 27.316406 -6.671875 27.613281 -6.554688 27.84375 -6.328125 C 28.070312 -6.097656 28.1875 -5.800781 28.1875 -5.4375 L 28.1875 -1.234375 C 28.1875 -0.867188 28.070312 -0.570312 27.84375 -0.34375 C 27.613281 -0.113281 27.316406 0 26.953125 0 Z M 4.84375 0 "/></g></g></g><g fill="#181b30" fill-opacity="1"><g transform="translate(524.771743, 763.322458)"><g><path d="M 4.84375 0 C 4.519531 0 4.238281 -0.113281 4 -0.34375 C 3.769531 -0.570312 3.65625 -0.867188 3.65625 -1.234375 L 3.65625 -33.375 C 3.65625 -33.738281 3.769531 -34.035156 4 -34.265625 C 4.238281 -34.492188 4.519531 -34.609375 4.84375 -34.609375 L 10.4375 -34.609375 C 10.757812 -34.609375 11.035156 -34.492188 11.265625 -34.265625 C 11.503906 -34.035156 11.625 -33.738281 11.625 -33.375 L 11.625 -6.671875 L 26.953125 -6.671875 C 27.316406 -6.671875 27.613281 -6.554688 27.84375 -6.328125 C 28.070312 -6.097656 28.1875 -5.800781 28.1875 -5.4375 L 28.1875 -1.234375 C 28.1875 -0.867188 28.070312 -0.570312 27.84375 -0.34375 C 27.613281 -0.113281 27.316406 0 26.953125 0 Z M 4.84375 0 "/></g></g></g><g fill="#181b30" fill-opacity="1"><g transform="translate(578.58571, 763.322458)"><g><path d="M 1.625 0 C 1.332031 0 1.085938 -0.101562 0.890625 -0.3125 C 0.691406 -0.53125 0.59375 -0.769531 0.59375 -1.03125 C 0.59375 -1.195312 0.609375 -1.347656 0.640625 -1.484375 L 12.40625 -33.28125 C 12.507812 -33.644531 12.707031 -33.957031 13 -34.21875 C 13.300781 -34.476562 13.71875 -34.609375 14.25 -34.609375 L 20.578125 -34.609375 C 21.097656 -34.609375 21.503906 -34.476562 21.796875 -34.21875 C 22.097656 -33.957031 22.316406 -33.644531 22.453125 -33.28125 L 34.171875 -1.484375 C 34.234375 -1.347656 34.265625 -1.195312 34.265625 -1.03125 C 34.265625 -0.769531 34.15625 -0.53125 33.9375 -0.3125 C 33.726562 -0.101562 33.476562 0 33.1875 0 L 27.984375 0 C 27.523438 0 27.179688 -0.113281 26.953125 -0.34375 C 26.722656 -0.570312 26.570312 -0.785156 26.5 -0.984375 L 24.375 -6.53125 L 10.4375 -6.53125 L 8.359375 -0.984375 C 8.253906 -0.785156 8.09375 -0.570312 7.875 -0.34375 C 7.664062 -0.113281 7.316406 0 6.828125 0 Z M 12.3125 -12.90625 L 22.5 -12.90625 L 17.40625 -27.09375 Z M 12.3125 -12.90625 "/></g></g></g></svg>