<svg xmlns="http://www.w3.org/2000/svg" xmlns:xlink="http://www.w3.org/1999/xlink" width="1080" zoomAndPan="magnify" viewBox="0 0 810 809.999993" height="1080" preserveAspectRatio="xMidYMid meet" version="1.0"><defs><clipPath id="b8c2557075"><path d="M 22.839844 8.367188 L 793.839844 8.367188 L 793.839844 801 L 22.839844 801 Z M 22.839844 8.367188 " clip-rule="nonzero"/></clipPath></defs><path fill="#ffdbb8" d="M 779.441406 342.8125 C 779.441406 342.8125 778.570312 353.109375 773.253906 353.058594 C 699.304688 352.25 639.382812 370.339844 598.078125 413.492188 C 597.625 413.96875 597.117188 414.371094 596.554688 414.703125 C 595.988281 415.035156 595.386719 415.28125 594.753906 415.445312 C 594.121094 415.609375 593.476562 415.679688 592.820312 415.660156 C 592.164062 415.644531 591.527344 415.535156 590.902344 415.335938 C 576.9375 410.777344 562.703125 407.332031 548.199219 404.996094 C 533.699219 402.660156 519.101562 401.460938 504.414062 401.402344 C 487.988281 401.460938 471.703125 402.980469 455.554688 405.96875 C 439.402344 408.957031 423.648438 413.359375 408.292969 419.183594 C 346.398438 396.167969 285.605469 396.230469 225.683594 415.351562 C 225.058594 415.550781 224.417969 415.660156 223.761719 415.675781 C 223.105469 415.695312 222.460938 415.621094 221.824219 415.460938 C 221.1875 415.296875 220.585938 415.050781 220.019531 414.71875 C 219.453125 414.386719 218.945312 413.984375 218.492188 413.507812 C 177.1875 370.355469 117.265625 352.269531 43.316406 353.074219 C 38.015625 353.074219 37.125 342.828125 37.125 342.828125 C 37.125 342.828125 213.53125 190.167969 323.160156 95.550781 C 372.351562 53.074219 408.082031 22.316406 408.339844 22.316406 C 408.597656 22.316406 444.3125 53.027344 493.535156 95.550781 C 603.085938 190.167969 779.441406 342.8125 779.441406 342.8125 Z M 779.441406 342.8125 " fill-opacity="1" fill-rule="nonzero"/><path fill="#e5bb98" d="M 598.078125 413.492188 L 408.339844 22.300781 L 779.441406 342.8125 L 729.425781 355.03125 L 636.75 374.136719 L 598.078125 413.492188 " fill-opacity="1" fill-rule="nonzero"/><path fill="#fffbf8" d="M 219.445312 413.492188 L 409.179688 22.300781 L 38.078125 342.8125 L 88.09375 355.03125 L 180.773438 374.136719 L 219.445312 413.492188 " fill-opacity="1" fill-rule="nonzero"/><path fill="#fff1e6" d="M 237.496094 405.023438 L 313.449219 394.921875 C 313.449219 394.921875 408.308594 419.167969 408.324219 413.492188 C 408.339844 407.820312 408.324219 22.351562 408.324219 22.351562 L 223.628906 407.675781 Z M 237.496094 405.023438 " fill-opacity="1" fill-rule="nonzero"/><path fill="#ffae0d" d="M 429.476562 696.152344 L 427.636719 696.152344 L 429.253906 633.988281 L 386.914062 630.511719 L 381.917969 698.15625 C 380.859375 699.199219 380.195312 700.457031 379.929688 701.921875 C 379.761719 702.902344 379.550781 703.878906 379.296875 704.84375 C 379.042969 705.808594 378.746094 706.757812 378.410156 707.699219 C 378.070312 708.636719 377.695312 709.558594 377.277344 710.464844 C 376.855469 711.371094 376.398438 712.257812 375.90625 713.121094 C 375.410156 713.988281 374.875 714.832031 374.304688 715.648438 C 373.738281 716.46875 373.132812 717.261719 372.492188 718.027344 C 371.855469 718.792969 371.183594 719.53125 370.480469 720.238281 C 369.773438 720.945312 369.042969 721.621094 368.28125 722.261719 C 367.515625 722.90625 366.726562 723.515625 365.910156 724.089844 C 365.09375 724.664062 364.253906 725.199219 363.390625 725.699219 C 362.53125 726.199219 361.644531 726.660156 360.742188 727.085938 C 359.839844 727.507812 358.917969 727.890625 357.980469 728.230469 C 357.042969 728.574219 356.09375 728.875 355.132812 729.132812 C 354.167969 729.394531 353.195312 729.609375 352.210938 729.785156 C 351.230469 729.957031 350.242188 730.089844 349.25 730.175781 C 348.253906 730.261719 347.257812 730.304688 346.261719 730.304688 C 345.265625 730.304688 344.269531 730.261719 343.273438 730.175781 C 342.28125 730.089844 341.292969 729.957031 340.3125 729.785156 C 339.328125 729.609375 338.355469 729.394531 337.390625 729.132812 C 336.429688 728.875 335.480469 728.574219 334.542969 728.234375 C 333.605469 727.890625 332.683594 727.507812 331.78125 727.085938 C 330.878906 726.660156 329.992188 726.199219 329.132812 725.699219 C 328.269531 725.199219 327.429688 724.664062 326.613281 724.089844 C 325.796875 723.515625 325.007812 722.90625 324.246094 722.261719 C 323.480469 721.621094 322.75 720.945312 322.042969 720.238281 C 321.339844 719.53125 320.667969 718.792969 320.03125 718.027344 C 319.390625 717.261719 318.789062 716.46875 318.21875 715.648438 C 317.648438 714.832031 317.113281 713.988281 316.621094 713.121094 C 316.125 712.257812 315.667969 711.371094 315.246094 710.464844 C 314.828125 709.558594 314.453125 708.636719 314.113281 707.699219 C 313.777344 706.757812 313.480469 705.808594 313.226562 704.84375 C 312.972656 703.878906 312.761719 702.902344 312.59375 701.921875 C 312.523438 701.519531 312.421875 701.128906 312.285156 700.75 C 312.148438 700.367188 311.980469 700 311.777344 699.648438 C 311.578125 699.296875 311.347656 698.964844 311.089844 698.652344 C 310.828125 698.339844 310.542969 698.050781 310.234375 697.789062 C 309.925781 697.527344 309.597656 697.296875 309.246094 697.09375 C 308.894531 696.886719 308.53125 696.714844 308.148438 696.574219 C 307.769531 696.4375 307.378906 696.332031 306.980469 696.257812 C 306.582031 696.1875 306.179688 696.152344 305.773438 696.152344 L 263.078125 696.152344 C 262.605469 696.148438 262.132812 696.191406 261.671875 696.285156 C 261.207031 696.378906 260.753906 696.519531 260.320312 696.707031 C 259.882812 696.890625 259.472656 697.121094 259.085938 697.394531 C 258.695312 697.664062 258.339844 697.972656 258.015625 698.316406 C 257.691406 698.664062 257.402344 699.039062 257.15625 699.441406 C 256.910156 699.847656 256.707031 700.273438 256.546875 700.71875 C 256.386719 701.164062 256.273438 701.621094 256.210938 702.089844 C 256.144531 702.5625 256.128906 703.03125 256.160156 703.503906 C 256.289062 704.894531 256.449219 706.277344 256.640625 707.660156 C 256.832031 709.042969 257.054688 710.417969 257.308594 711.789062 C 257.566406 713.160156 257.851562 714.527344 258.171875 715.882812 C 258.488281 717.242188 258.839844 718.59375 259.21875 719.933594 C 259.601562 721.277344 260.011719 722.609375 260.453125 723.929688 C 260.894531 725.253906 261.371094 726.566406 261.871094 727.867188 C 262.375 729.167969 262.90625 730.457031 263.46875 731.734375 C 264.03125 733.007812 264.625 734.273438 265.246094 735.519531 C 265.867188 736.769531 266.515625 738.003906 267.195312 739.222656 C 267.871094 740.441406 268.578125 741.644531 269.3125 742.832031 C 270.042969 744.015625 270.804688 745.183594 271.59375 746.335938 C 272.378906 747.488281 273.195312 748.621094 274.035156 749.734375 C 274.875 750.847656 275.738281 751.941406 276.628906 753.015625 C 277.519531 754.085938 278.433594 755.140625 279.375 756.171875 C 280.3125 757.203125 281.277344 758.210938 282.261719 759.199219 C 283.246094 760.183594 284.253906 761.148438 285.285156 762.089844 C 286.316406 763.027344 287.367188 763.945312 288.441406 764.835938 C 289.511719 765.726562 290.605469 766.59375 291.71875 767.433594 C 292.832031 768.273438 293.960938 769.089844 295.113281 769.878906 C 296.261719 770.667969 297.429688 771.429688 298.617188 772.164062 C 299.800781 772.898438 301.003906 773.605469 302.222656 774.285156 C 303.4375 774.960938 304.671875 775.613281 305.921875 776.234375 C 307.167969 776.859375 308.429688 777.449219 309.707031 778.015625 C 310.984375 778.578125 312.269531 779.113281 313.570312 779.617188 C 314.871094 780.121094 316.183594 780.59375 317.503906 781.039062 C 318.828125 781.480469 320.160156 781.894531 321.5 782.273438 C 322.839844 782.65625 324.191406 783.007812 325.546875 783.328125 C 326.90625 783.648438 328.269531 783.933594 329.640625 784.191406 C 331.011719 784.449219 332.386719 784.671875 333.769531 784.863281 C 335.148438 785.058594 336.535156 785.21875 337.921875 785.347656 C 339.3125 785.476562 340.703125 785.574219 342.097656 785.636719 C 343.488281 785.703125 344.882812 785.734375 346.277344 785.734375 C 347.671875 785.734375 349.066406 785.703125 350.460938 785.636719 C 351.851562 785.574219 353.242188 785.476562 354.632812 785.347656 C 356.019531 785.21875 357.40625 785.058594 358.785156 784.863281 C 360.167969 784.671875 361.542969 784.449219 362.914062 784.191406 C 364.285156 783.933594 365.648438 783.648438 367.007812 783.328125 C 368.363281 783.007812 369.714844 782.65625 371.054688 782.273438 C 372.398438 781.894531 373.730469 781.480469 375.050781 781.039062 C 376.375 780.59375 377.683594 780.121094 378.984375 779.617188 C 380.285156 779.113281 381.574219 778.578125 382.847656 778.015625 C 384.125 777.449219 385.386719 776.859375 386.636719 776.234375 C 387.882812 775.613281 389.117188 774.960938 390.335938 774.285156 C 391.554688 773.605469 392.753906 772.898438 393.941406 772.164062 C 395.125 771.429688 396.292969 770.667969 397.445312 769.878906 C 398.59375 769.089844 399.726562 768.273438 400.839844 767.433594 C 401.949219 766.59375 403.042969 765.726562 404.117188 764.835938 C 405.1875 763.945312 406.238281 763.027344 407.269531 762.089844 C 408.300781 761.148438 409.308594 760.183594 410.292969 759.199219 C 411.28125 758.210938 412.242188 757.203125 413.183594 756.171875 C 414.121094 755.140625 415.035156 754.085938 415.925781 753.015625 C 416.816406 751.941406 417.683594 750.847656 418.523438 749.734375 C 419.363281 748.621094 420.175781 747.488281 420.964844 746.335938 C 421.75 745.183594 422.511719 744.015625 423.246094 742.832031 C 423.976562 741.644531 424.683594 740.441406 425.363281 739.222656 C 426.039062 738.003906 426.6875 736.769531 427.308594 735.519531 C 427.929688 734.273438 428.523438 733.007812 429.085938 731.734375 C 429.648438 730.457031 430.179688 729.167969 430.683594 727.867188 C 431.1875 726.566406 431.660156 725.253906 432.101562 723.929688 C 432.542969 722.609375 432.957031 721.277344 433.335938 719.933594 C 433.71875 718.59375 434.066406 717.242188 434.386719 715.882812 C 434.703125 714.527344 434.992188 713.160156 435.246094 711.789062 C 435.5 710.417969 435.722656 709.042969 435.914062 707.660156 C 436.109375 706.277344 436.265625 704.894531 436.394531 703.503906 C 436.425781 703.03125 436.410156 702.5625 436.34375 702.09375 C 436.277344 701.625 436.164062 701.167969 436.003906 700.71875 C 435.84375 700.273438 435.640625 699.851562 435.394531 699.445312 C 435.144531 699.042969 434.859375 698.667969 434.535156 698.324219 C 434.210938 697.976562 433.855469 697.671875 433.46875 697.398438 C 433.078125 697.128906 432.667969 696.898438 432.234375 696.710938 C 431.796875 696.523438 431.347656 696.382812 430.882812 696.289062 C 430.421875 696.195312 429.953125 696.148438 429.476562 696.152344 Z M 429.476562 696.152344 " fill-opacity="1" fill-rule="nonzero"/><g clip-path="url(#b8c2557075)"><path fill="#181b30" d="M 788.507812 332.324219 C 786.746094 330.804688 610.90625 178.597656 502.585938 85.03125 C 477.976562 63.792969 456.722656 45.460938 441.597656 32.46875 C 434.035156 26.003906 427.992188 20.765625 423.824219 17.210938 C 414.902344 9.613281 413.542969 8.449219 408.339844 8.449219 C 403.136719 8.449219 401.765625 9.613281 392.90625 17.242188 C 388.738281 20.796875 382.695312 25.988281 375.132812 32.5 C 360.007812 45.429688 338.773438 63.824219 314.175781 85.0625 C 205.902344 178.597656 30 330.738281 28.238281 332.355469 L 22.839844 336.945312 L 23.4375 343.976562 C 24.601562 357.730469 32.617188 366.925781 43.414062 366.925781 L 43.589844 366.925781 C 117.683594 366.101562 171.644531 384.480469 208.632812 423.109375 C 209.304688 423.8125 210.019531 424.460938 210.785156 425.0625 C 211.546875 425.664062 212.34375 426.207031 213.183594 426.695312 C 214.023438 427.1875 214.890625 427.613281 215.789062 427.980469 C 216.6875 428.347656 217.605469 428.652344 218.546875 428.890625 C 219.484375 429.128906 220.4375 429.300781 221.402344 429.40625 C 222.367188 429.511719 223.335938 429.550781 224.304688 429.523438 C 225.273438 429.492188 226.238281 429.394531 227.191406 429.230469 C 228.148438 429.066406 229.089844 428.835938 230.015625 428.539062 C 286.203125 410.582031 340.097656 410.761719 394.492188 429.007812 L 394.492188 614.074219 L 387.574219 614.074219 C 386.898438 614.078125 386.21875 614.113281 385.542969 614.179688 C 384.871094 614.246094 384.199219 614.347656 383.535156 614.480469 C 382.867188 614.613281 382.210938 614.777344 381.5625 614.976562 C 380.914062 615.175781 380.273438 615.402344 379.648438 615.664062 C 379.019531 615.921875 378.410156 616.210938 377.808594 616.53125 C 377.210938 616.851562 376.628906 617.199219 376.066406 617.574219 C 375.5 617.953125 374.957031 618.355469 374.429688 618.785156 C 373.90625 619.214844 373.402344 619.667969 372.921875 620.148438 C 372.441406 620.628906 371.984375 621.128906 371.554688 621.652344 C 371.121094 622.175781 370.71875 622.71875 370.339844 623.28125 C 369.960938 623.84375 369.609375 624.425781 369.289062 625.023438 C 368.964844 625.621094 368.671875 626.230469 368.410156 626.859375 C 368.148438 627.484375 367.917969 628.121094 367.71875 628.769531 C 367.519531 629.417969 367.351562 630.074219 367.214844 630.738281 C 367.078125 631.40625 366.976562 632.074219 366.90625 632.75 C 366.835938 633.425781 366.796875 634.101562 366.792969 634.78125 L 366.582031 696.199219 C 366.597656 696.839844 366.582031 697.476562 366.539062 698.113281 C 366.492188 698.75 366.417969 699.386719 366.3125 700.015625 C 366.207031 700.644531 366.070312 701.269531 365.90625 701.886719 C 365.742188 702.503906 365.550781 703.113281 365.328125 703.710938 C 365.109375 704.3125 364.859375 704.898438 364.582031 705.476562 C 364.304688 706.050781 364 706.613281 363.671875 707.160156 C 363.34375 707.707031 362.988281 708.238281 362.605469 708.75 C 362.226562 709.265625 361.824219 709.761719 361.398438 710.234375 C 360.972656 710.710938 360.523438 711.167969 360.054688 711.601562 C 359.582031 712.03125 359.09375 712.445312 358.585938 712.832031 C 358.078125 713.21875 357.554688 713.582031 357.011719 713.917969 C 356.46875 714.257812 355.910156 714.566406 355.339844 714.851562 C 354.769531 715.136719 354.183594 715.394531 353.589844 715.625 C 352.992188 715.855469 352.386719 716.058594 351.769531 716.230469 C 351.15625 716.402344 350.535156 716.546875 349.90625 716.660156 C 349.277344 716.773438 348.644531 716.859375 348.007812 716.914062 C 347.371094 716.96875 346.734375 716.992188 346.09375 716.988281 C 345.457031 716.980469 344.820312 716.945312 344.183594 716.878906 C 343.546875 716.8125 342.917969 716.71875 342.289062 716.59375 C 341.664062 716.46875 341.042969 716.3125 340.433594 716.128906 C 339.820312 715.945312 339.21875 715.734375 338.625 715.492188 C 338.035156 715.25 337.457031 714.984375 336.890625 714.6875 C 336.320312 714.394531 335.769531 714.070312 335.234375 713.726562 C 334.699219 713.378906 334.179688 713.003906 333.679688 712.609375 C 333.175781 712.214844 332.695312 711.792969 332.234375 711.351562 C 331.773438 710.910156 331.332031 710.449219 330.914062 709.964844 C 330.496094 709.480469 330.101562 708.980469 329.730469 708.460938 C 329.359375 707.9375 329.015625 707.402344 328.695312 706.847656 C 328.375 706.296875 328.082031 705.730469 327.816406 705.148438 C 327.546875 704.566406 327.308594 703.976562 327.097656 703.371094 C 326.886719 702.769531 326.707031 702.15625 326.554688 701.535156 C 326.398438 700.917969 326.277344 700.289062 326.183594 699.65625 C 325.980469 698.457031 325.679688 697.28125 325.269531 696.132812 C 324.863281 694.984375 324.359375 693.882812 323.753906 692.824219 C 323.152344 691.765625 322.464844 690.765625 321.683594 689.828125 C 320.90625 688.890625 320.050781 688.03125 319.121094 687.242188 C 318.191406 686.457031 317.199219 685.757812 316.148438 685.148438 C 315.09375 684.535156 313.996094 684.019531 312.851562 683.601562 C 311.707031 683.183594 310.535156 682.871094 309.335938 682.660156 C 308.132812 682.449219 306.925781 682.34375 305.707031 682.347656 L 263.078125 682.347656 C 261.636719 682.347656 260.214844 682.5 258.808594 682.792969 C 257.398438 683.089844 256.035156 683.527344 254.71875 684.101562 C 253.398438 684.679688 252.15625 685.386719 250.980469 686.21875 C 249.808594 687.054688 248.734375 688 247.757812 689.054688 C 246.792969 690.097656 245.945312 691.230469 245.214844 692.453125 C 244.488281 693.671875 243.890625 694.953125 243.425781 696.296875 C 242.960938 697.640625 242.636719 699.015625 242.460938 700.425781 C 242.28125 701.835938 242.246094 703.25 242.359375 704.667969 C 242.496094 706.324219 242.671875 707.976562 242.890625 709.621094 C 243.105469 711.269531 243.359375 712.910156 243.65625 714.546875 C 243.949219 716.179688 244.28125 717.808594 244.65625 719.425781 C 245.027344 721.046875 245.4375 722.65625 245.886719 724.253906 C 246.335938 725.855469 246.824219 727.441406 247.347656 729.019531 C 247.871094 730.59375 248.433594 732.15625 249.035156 733.707031 C 249.632812 735.257812 250.269531 736.789062 250.941406 738.308594 C 251.617188 739.828125 252.324219 741.332031 253.070312 742.816406 C 253.8125 744.300781 254.59375 745.765625 255.410156 747.214844 C 256.222656 748.664062 257.070312 750.089844 257.953125 751.496094 C 258.835938 752.90625 259.753906 754.289062 260.703125 755.652344 C 261.652344 757.015625 262.632812 758.355469 263.644531 759.671875 C 264.660156 760.988281 265.703125 762.28125 266.777344 763.546875 C 267.851562 764.8125 268.957031 766.054688 270.09375 767.269531 C 271.226562 768.480469 272.386719 769.667969 273.578125 770.828125 C 274.769531 771.984375 275.988281 773.113281 277.234375 774.214844 C 278.476562 775.3125 279.746094 776.382812 281.042969 777.421875 C 282.339844 778.460938 283.660156 779.46875 285.003906 780.445312 C 286.347656 781.421875 287.714844 782.367188 289.105469 783.277344 C 290.492188 784.1875 291.902344 785.066406 293.332031 785.90625 C 294.765625 786.75 296.214844 787.558594 297.683594 788.335938 C 299.15625 789.109375 300.640625 789.847656 302.148438 790.550781 C 303.652344 791.253906 305.171875 791.921875 306.710938 792.550781 C 308.246094 793.179688 309.796875 793.773438 311.363281 794.332031 C 312.929688 794.886719 314.503906 795.40625 316.09375 795.886719 C 317.683594 796.367188 319.285156 796.808594 320.898438 797.214844 C 322.507812 797.617188 324.128906 797.984375 325.757812 798.308594 C 327.386719 798.636719 329.019531 798.925781 330.664062 799.171875 C 332.304688 799.421875 333.953125 799.632812 335.605469 799.800781 C 337.257812 799.972656 338.914062 800.101562 340.570312 800.191406 C 342.230469 800.28125 343.890625 800.335938 345.550781 800.34375 C 347.210938 800.355469 348.871094 800.328125 350.53125 800.261719 C 352.191406 800.191406 353.847656 800.085938 355.503906 799.9375 C 357.15625 799.792969 358.808594 799.605469 360.453125 799.378906 C 362.097656 799.152344 363.738281 798.886719 365.371094 798.582031 C 367.003906 798.277344 368.628906 797.9375 370.246094 797.554688 C 371.863281 797.171875 373.46875 796.75 375.066406 796.292969 C 376.660156 795.832031 378.246094 795.335938 379.820312 794.800781 C 381.390625 794.269531 382.949219 793.695312 384.496094 793.085938 C 386.042969 792.476562 387.570312 791.832031 389.085938 791.148438 C 390.601562 790.46875 392.097656 789.75 393.578125 788.996094 C 395.058594 788.242188 396.519531 787.453125 397.960938 786.628906 C 399.40625 785.804688 400.828125 784.949219 402.226562 784.058594 C 403.628906 783.164062 405.007812 782.242188 406.367188 781.28125 C 407.722656 780.324219 409.058594 779.335938 410.367188 778.316406 C 411.679688 777.292969 412.960938 776.242188 414.222656 775.160156 C 415.480469 774.074219 416.714844 772.964844 417.921875 771.820312 C 419.128906 770.679688 420.308594 769.511719 421.457031 768.3125 C 422.609375 767.113281 423.730469 765.890625 424.824219 764.636719 C 425.914062 763.386719 426.976562 762.109375 428.007812 760.808594 C 429.039062 759.503906 430.039062 758.179688 431.007812 756.828125 C 431.976562 755.476562 432.910156 754.105469 433.8125 752.710938 C 434.714844 751.316406 435.582031 749.898438 436.417969 748.464844 C 437.253906 747.027344 438.050781 745.570312 438.816406 744.097656 C 439.582031 742.621094 440.3125 741.128906 441.003906 739.621094 C 441.699219 738.109375 442.355469 736.585938 442.976562 735.046875 C 443.597656 733.503906 444.183594 731.949219 444.726562 730.378906 C 445.273438 728.8125 445.785156 727.230469 446.253906 725.636719 C 446.726562 724.042969 447.160156 722.441406 447.554688 720.828125 C 447.949219 719.214844 448.304688 717.589844 448.621094 715.960938 C 448.9375 714.328125 449.214844 712.691406 449.453125 711.046875 C 449.691406 709.402344 449.890625 707.753906 450.050781 706.101562 C 450.210938 704.449219 450.332031 702.792969 450.410156 701.132812 C 450.492188 699.472656 450.535156 697.8125 450.535156 696.152344 L 450.292969 634.828125 C 450.289062 634.148438 450.253906 633.472656 450.183594 632.796875 C 450.113281 632.121094 450.011719 631.453125 449.875 630.785156 C 449.742188 630.121094 449.574219 629.464844 449.375 628.816406 C 449.175781 628.164062 448.945312 627.527344 448.683594 626.902344 C 448.421875 626.273438 448.128906 625.664062 447.808594 625.066406 C 447.484375 624.46875 447.136719 623.886719 446.757812 623.324219 C 446.378906 622.757812 445.972656 622.214844 445.542969 621.691406 C 445.109375 621.167969 444.652344 620.667969 444.171875 620.1875 C 443.691406 619.707031 443.1875 619.253906 442.664062 618.824219 C 442.136719 618.394531 441.59375 617.992188 441.027344 617.613281 C 440.460938 617.238281 439.878906 616.890625 439.28125 616.570312 C 438.683594 616.25 438.070312 615.960938 437.441406 615.703125 C 436.816406 615.441406 436.175781 615.214844 435.527344 615.019531 C 434.878906 614.820312 434.21875 614.65625 433.554688 614.523438 C 432.886719 614.390625 432.21875 614.292969 431.542969 614.226562 C 430.867188 614.15625 430.191406 614.125 429.511719 614.125 L 422.207031 614.125 L 422.207031 428.992188 C 435.449219 424.503906 448.964844 421.105469 462.753906 418.804688 C 476.546875 416.503906 490.429688 415.324219 504.414062 415.269531 C 518.382812 415.34375 532.265625 416.492188 546.054688 418.71875 C 559.847656 420.949219 573.386719 424.226562 586.667969 428.558594 C 587.59375 428.851562 588.535156 429.078125 589.488281 429.238281 C 590.445312 429.402344 591.410156 429.496094 592.378906 429.523438 C 593.347656 429.550781 594.316406 429.507812 595.277344 429.402344 C 596.242188 429.292969 597.195312 429.117188 598.132812 428.878906 C 599.074219 428.636719 599.992188 428.332031 600.890625 427.960938 C 601.785156 427.59375 602.652344 427.164062 603.488281 426.671875 C 604.328125 426.183594 605.125 425.636719 605.886719 425.035156 C 606.648438 424.429688 607.363281 423.78125 608.03125 423.078125 C 644.957031 384.480469 698.949219 366.085938 773.058594 366.925781 L 773.238281 366.925781 C 784.015625 366.925781 792.015625 357.730469 793.195312 343.976562 L 793.792969 336.945312 Z M 422.820312 696.152344 C 422.832031 698.519531 422.734375 700.886719 422.527344 703.246094 C 422.316406 705.609375 422 707.953125 421.574219 710.285156 C 421.148438 712.617188 420.617188 714.925781 419.976562 717.207031 C 419.335938 719.488281 418.59375 721.734375 417.742188 723.949219 C 416.894531 726.160156 415.945312 728.328125 414.894531 730.453125 C 413.84375 732.578125 412.699219 734.652344 411.457031 736.667969 C 410.214844 738.6875 408.882812 740.644531 407.457031 742.539062 C 406.03125 744.433594 404.523438 746.257812 402.929688 748.011719 C 401.335938 749.765625 399.667969 751.441406 397.917969 753.039062 C 396.167969 754.640625 394.347656 756.152344 392.457031 757.585938 C 390.570312 759.015625 388.617188 760.355469 386.601562 761.601562 C 384.589844 762.851562 382.523438 764.003906 380.402344 765.058594 C 378.28125 766.117188 376.113281 767.074219 373.902344 767.929688 C 371.695312 768.785156 369.449219 769.535156 367.167969 770.183594 C 364.890625 770.828125 362.585938 771.371094 360.253906 771.800781 C 357.925781 772.234375 355.582031 772.558594 353.222656 772.773438 C 350.859375 772.988281 348.496094 773.09375 346.125 773.089844 C 343.757812 773.085938 341.394531 772.972656 339.035156 772.75 C 336.675781 772.523438 334.332031 772.191406 332.003906 771.75 C 329.675781 771.308594 327.371094 770.757812 325.09375 770.105469 C 322.816406 769.449219 320.574219 768.6875 318.371094 767.824219 C 316.164062 766.960938 314 765.996094 311.882812 764.929688 C 309.765625 763.867188 307.703125 762.707031 305.695312 761.449219 C 303.683594 760.195312 301.738281 758.847656 299.851562 757.410156 C 297.96875 755.972656 296.15625 754.453125 294.414062 752.847656 C 292.667969 751.242188 291.003906 749.558594 289.417969 747.796875 C 287.832031 746.035156 286.328125 744.207031 284.910156 742.308594 C 283.496094 740.40625 282.167969 738.445312 280.933594 736.421875 C 279.699219 734.402344 278.5625 732.324219 277.519531 730.195312 C 276.476562 728.066406 275.535156 725.894531 274.695312 723.679688 C 273.855469 721.464844 273.121094 719.210938 272.488281 716.929688 C 271.855469 714.644531 271.332031 712.335938 270.914062 710.003906 L 300.214844 710.003906 C 300.625 711.367188 301.09375 712.714844 301.625 714.035156 C 302.15625 715.359375 302.746094 716.660156 303.390625 717.929688 C 304.035156 719.203125 304.738281 720.441406 305.496094 721.652344 C 306.25 722.859375 307.0625 724.03125 307.921875 725.167969 C 308.78125 726.308594 309.691406 727.402344 310.652344 728.457031 C 311.609375 729.515625 312.613281 730.527344 313.664062 731.492188 C 314.710938 732.457031 315.800781 733.375 316.933594 734.246094 C 318.0625 735.117188 319.230469 735.933594 320.433594 736.699219 C 321.636719 737.464844 322.871094 738.175781 324.136719 738.828125 C 325.40625 739.484375 326.699219 740.082031 328.019531 740.621094 C 329.335938 741.164062 330.679688 741.644531 332.042969 742.0625 C 333.40625 742.484375 334.78125 742.84375 336.175781 743.140625 C 337.574219 743.4375 338.976562 743.675781 340.394531 743.847656 C 341.808594 744.019531 343.230469 744.128906 344.65625 744.175781 C 346.078125 744.222656 347.503906 744.203125 348.929688 744.121094 C 350.351562 744.042969 351.769531 743.898438 353.179688 743.691406 C 354.589844 743.484375 355.988281 743.214844 357.378906 742.882812 C 358.765625 742.550781 360.132812 742.15625 361.484375 741.703125 C 362.835938 741.25 364.167969 740.738281 365.472656 740.164062 C 366.777344 739.59375 368.058594 738.964844 369.308594 738.277344 C 370.558594 737.589844 371.773438 736.851562 372.960938 736.054688 C 374.144531 735.261719 375.289062 734.417969 376.398438 733.519531 C 377.507812 732.621094 378.574219 731.679688 379.601562 730.6875 C 380.625 729.695312 381.605469 728.660156 382.535156 727.582031 C 383.46875 726.5 384.351562 725.382812 385.1875 724.226562 C 386.019531 723.066406 386.796875 721.875 387.527344 720.648438 C 388.253906 719.421875 388.921875 718.164062 389.539062 716.878906 C 390.152344 715.589844 390.710938 714.277344 391.207031 712.941406 C 391.707031 711.605469 392.144531 710.25 392.519531 708.875 C 392.898438 707.5 393.214844 706.109375 393.46875 704.707031 C 393.722656 703.300781 393.910156 701.890625 394.039062 700.46875 C 394.167969 699.050781 394.230469 697.625 394.234375 696.199219 L 394.425781 641.792969 L 422.546875 641.792969 Z M 591.046875 400.871094 C 577.019531 396.511719 562.746094 393.21875 548.226562 390.988281 C 533.707031 388.753906 519.101562 387.609375 504.414062 387.550781 C 488.035156 387.613281 471.785156 389.0625 455.65625 391.898438 C 439.527344 394.730469 423.757812 398.914062 408.339844 404.441406 C 392.898438 398.910156 377.101562 394.734375 360.945312 391.914062 C 344.789062 389.089844 328.507812 387.664062 312.105469 387.632812 C 297.4375 387.675781 282.855469 388.808594 268.355469 391.027344 C 253.851562 393.246094 239.597656 396.527344 225.585938 400.871094 C 187.109375 362.484375 132.261719 341.859375 62.367188 339.449219 C 108.328125 299.625 243.121094 183.007812 332.210938 106.042969 L 337.460938 101.515625 C 348.800781 105.746094 360.425781 108.929688 372.335938 111.074219 C 384.25 113.214844 396.253906 114.28125 408.355469 114.269531 C 420.457031 114.28125 432.460938 113.214844 444.367188 111.074219 C 456.277344 108.929688 467.898438 105.746094 479.234375 101.515625 L 484.472656 106.042969 C 573.5625 182.976562 708.371094 299.625 754.34375 339.417969 C 684.355469 341.875 629.492188 362.515625 591.046875 400.871094 Z M 591.046875 400.871094 " fill-opacity="1" fill-rule="nonzero"/></g></svg>