<svg xmlns="http://www.w3.org/2000/svg" xmlns:xlink="http://www.w3.org/1999/xlink" width="1080" zoomAndPan="magnify" viewBox="0 0 810 809.999993" height="1080" preserveAspectRatio="xMidYMid meet" version="1.0"><defs><clipPath id="3542e1be0f"><path d="M 42 6.417969 L 801 6.417969 L 801 803.667969 L 42 803.667969 Z M 42 6.417969 " clip-rule="nonzero"/></clipPath></defs><g clip-path="url(#3542e1be0f)"><path fill="#737373" d="M 42.546875 20.164062 L 42.546875 789.832031 C 42.546875 790.734375 42.636719 791.625 42.8125 792.511719 C 42.988281 793.398438 43.25 794.257812 43.59375 795.089844 C 43.941406 795.925781 44.363281 796.714844 44.863281 797.464844 C 45.367188 798.214844 45.9375 798.910156 46.574219 799.550781 C 47.210938 800.1875 47.90625 800.757812 48.65625 801.257812 C 49.40625 801.757812 50.199219 802.183594 51.03125 802.527344 C 51.867188 802.875 52.726562 803.132812 53.613281 803.3125 C 54.496094 803.488281 55.390625 803.574219 56.292969 803.574219 L 661.03125 803.574219 C 661.933594 803.574219 662.828125 803.488281 663.714844 803.308594 C 664.597656 803.132812 665.457031 802.875 666.292969 802.527344 C 667.125 802.183594 667.917969 801.757812 668.667969 801.257812 C 669.417969 800.757812 670.113281 800.1875 670.75 799.550781 C 671.386719 798.910156 671.957031 798.214844 672.460938 797.464844 C 672.960938 796.714844 673.382812 795.921875 673.730469 795.089844 C 674.074219 794.257812 674.335938 793.398438 674.511719 792.511719 C 674.6875 791.625 674.777344 790.734375 674.777344 789.832031 L 674.777344 559.753906 L 775.65625 404.996094 L 791.601562 380.667969 C 792.609375 379.121094 793.539062 377.53125 794.390625 375.890625 C 795.242188 374.253906 796.011719 372.578125 796.699219 370.863281 C 797.386719 369.148438 797.988281 367.40625 798.503906 365.632812 C 799.019531 363.859375 799.445312 362.066406 799.789062 360.253906 C 800.128906 358.4375 800.378906 356.609375 800.539062 354.769531 C 800.703125 352.933594 800.773438 351.089844 800.753906 349.242188 C 800.734375 347.398438 800.625 345.554688 800.421875 343.71875 C 800.222656 341.886719 799.933594 340.0625 799.554688 338.257812 C 799.175781 336.449219 798.710938 334.664062 798.15625 332.902344 C 797.601562 331.140625 796.964844 329.414062 796.242188 327.714844 C 795.519531 326.015625 794.714844 324.355469 793.828125 322.734375 C 792.941406 321.113281 791.980469 319.542969 790.9375 318.015625 C 789.898438 316.492188 788.785156 315.019531 787.601562 313.605469 C 786.417969 312.1875 785.167969 310.832031 783.851562 309.539062 C 782.53125 308.246094 781.15625 307.019531 779.71875 305.859375 C 778.28125 304.703125 776.789062 303.617188 775.246094 302.601562 L 772.222656 300.679688 C 770.675781 299.667969 769.085938 298.734375 767.445312 297.878906 C 765.808594 297.023438 764.132812 296.25 762.417969 295.558594 C 760.707031 294.867188 758.960938 294.261719 757.191406 293.742188 C 755.417969 293.222656 753.621094 292.792969 751.808594 292.449219 C 749.992188 292.105469 748.164062 291.855469 746.324219 291.691406 C 744.484375 291.527344 742.636719 291.457031 740.792969 291.472656 C 738.945312 291.492188 737.101562 291.601562 735.265625 291.800781 C 733.429688 292 731.605469 292.289062 729.796875 292.667969 C 727.988281 293.046875 726.203125 293.515625 724.441406 294.070312 C 722.679688 294.625 720.949219 295.261719 719.246094 295.988281 C 717.546875 296.710938 715.886719 297.519531 714.269531 298.40625 C 712.648438 299.292969 711.074219 300.261719 709.550781 301.304688 C 708.023438 302.34375 706.554688 303.460938 705.140625 304.648438 C 703.722656 305.835938 702.371094 307.089844 701.078125 308.410156 C 699.785156 309.730469 698.558594 311.109375 697.402344 312.550781 C 696.246094 313.992188 695.164062 315.488281 694.15625 317.035156 L 681.648438 336.277344 L 674.5 347.269531 L 674.5 119.394531 C 674.476562 117.648438 674.132812 115.96875 673.46875 114.355469 C 672.800781 112.742188 671.863281 111.304688 670.652344 110.046875 L 571.285156 10.402344 C 570.0625 9.128906 568.640625 8.144531 567.019531 7.453125 C 565.394531 6.761719 563.703125 6.417969 561.9375 6.417969 L 55.878906 6.417969 C 54.996094 6.445312 54.121094 6.554688 53.257812 6.75 C 52.394531 6.945312 51.558594 7.222656 50.746094 7.582031 C 49.9375 7.9375 49.167969 8.371094 48.441406 8.875 C 47.714844 9.378906 47.042969 9.953125 46.425781 10.585938 C 45.8125 11.222656 45.261719 11.910156 44.777344 12.652344 C 44.292969 13.394531 43.886719 14.175781 43.554688 14.996094 C 43.222656 15.816406 42.972656 16.660156 42.800781 17.53125 C 42.632812 18.398438 42.546875 19.277344 42.546875 20.164062 Z M 606.054688 616.519531 L 553.140625 581.882812 L 696.628906 361.839844 L 749.542969 396.476562 Z M 545.445312 608.546875 L 583.515625 633.421875 L 541.046875 656.789062 Z M 757.789062 322.53125 L 760.8125 324.457031 C 761.632812 324.988281 762.425781 325.558594 763.1875 326.167969 C 763.953125 326.777344 764.683594 327.421875 765.382812 328.101562 C 766.082031 328.785156 766.746094 329.496094 767.375 330.246094 C 768.007812 330.992188 768.597656 331.769531 769.148438 332.574219 C 769.703125 333.378906 770.214844 334.207031 770.683594 335.066406 C 771.15625 335.921875 771.582031 336.796875 771.964844 337.695312 C 772.351562 338.59375 772.691406 339.507812 772.984375 340.4375 C 773.277344 341.371094 773.523438 342.3125 773.726562 343.269531 C 773.925781 344.226562 774.078125 345.1875 774.183594 346.160156 C 774.289062 347.132812 774.347656 348.105469 774.359375 349.082031 C 774.367188 350.058594 774.328125 351.03125 774.242188 352.003906 C 774.15625 352.976562 774.019531 353.945312 773.839844 354.902344 C 773.65625 355.863281 773.429688 356.8125 773.152344 357.75 C 772.878906 358.6875 772.554688 359.605469 772.1875 360.511719 C 771.824219 361.417969 771.414062 362.300781 770.957031 363.167969 C 770.503906 364.03125 770.007812 364.871094 769.472656 365.6875 L 763.976562 374.074219 L 711.058594 339.574219 L 716.558594 331.054688 C 717.09375 330.238281 717.671875 329.453125 718.285156 328.699219 C 718.898438 327.941406 719.546875 327.214844 720.230469 326.523438 C 720.917969 325.828125 721.632812 325.171875 722.382812 324.546875 C 723.132812 323.925781 723.910156 323.339844 724.71875 322.792969 C 725.523438 322.246094 726.355469 321.742188 727.210938 321.273438 C 728.070312 320.808594 728.945312 320.386719 729.84375 320.007812 C 730.742188 319.628906 731.65625 319.292969 732.585938 319.003906 C 733.515625 318.714844 734.460938 318.472656 735.414062 318.273438 C 736.367188 318.078125 737.328125 317.925781 738.300781 317.824219 C 739.269531 317.722656 740.238281 317.667969 741.214844 317.660156 C 742.1875 317.652344 743.160156 317.691406 744.132812 317.777344 C 745.101562 317.867188 746.066406 318 747.023438 318.183594 C 747.980469 318.363281 748.929688 318.59375 749.863281 318.867188 C 750.796875 319.144531 751.71875 319.464844 752.621094 319.828125 C 753.523438 320.195312 754.410156 320.601562 755.273438 321.054688 C 756.136719 321.503906 756.976562 322 757.789062 322.53125 Z M 634.09375 111.011719 L 570.597656 111.011719 L 570.597656 47.652344 Z M 69.210938 32.945312 L 543.933594 32.945312 L 543.933594 124.480469 C 543.933594 125.382812 544.019531 126.277344 544.195312 127.160156 C 544.371094 128.046875 544.632812 128.90625 544.980469 129.738281 C 545.324219 130.574219 545.746094 131.367188 546.25 132.117188 C 546.75 132.867188 547.320312 133.558594 547.957031 134.199219 C 548.597656 134.835938 549.289062 135.40625 550.039062 135.90625 C 550.792969 136.410156 551.582031 136.832031 552.417969 137.179688 C 553.25 137.523438 554.109375 137.785156 554.996094 137.960938 C 555.878906 138.136719 556.773438 138.222656 557.675781 138.222656 L 648.25 138.222656 L 648.25 387.816406 L 523.453125 578.035156 C 523.050781 578.777344 522.730469 579.558594 522.492188 580.371094 C 522.15625 581.222656 521.878906 582.09375 521.667969 582.980469 L 512.871094 679.878906 C 512.777344 681.078125 512.84375 682.269531 513.0625 683.449219 C 513.285156 684.632812 513.65625 685.765625 514.171875 686.851562 C 514.691406 687.9375 515.34375 688.9375 516.121094 689.851562 C 516.902344 690.765625 517.789062 691.566406 518.78125 692.246094 C 519.824219 692.851562 520.929688 693.308594 522.09375 693.621094 C 523.261719 693.933594 524.445312 694.089844 525.652344 694.089844 C 526.859375 694.089844 528.042969 693.933594 529.210938 693.621094 C 530.375 693.308594 531.480469 692.851562 532.523438 692.246094 L 615.953125 646.34375 C 617.320312 645.648438 618.464844 644.683594 619.386719 643.457031 L 620.074219 642.632812 L 647.5625 601.398438 L 647.5625 777.046875 L 69.210938 777.046875 Z M 69.210938 32.945312 " fill-opacity="1" fill-rule="nonzero"/></g><path fill="#737373" d="M 154.976562 204.058594 L 567.296875 205.433594 C 567.800781 205.558594 568.3125 205.65625 568.828125 205.726562 C 569.34375 205.792969 569.863281 205.832031 570.382812 205.84375 C 570.90625 205.851562 571.425781 205.832031 571.941406 205.78125 C 572.460938 205.734375 572.972656 205.65625 573.484375 205.546875 C 573.992188 205.4375 574.496094 205.304688 574.988281 205.136719 C 575.484375 204.972656 575.964844 204.78125 576.4375 204.5625 C 576.910156 204.34375 577.367188 204.097656 577.8125 203.824219 C 578.257812 203.550781 578.683594 203.257812 579.09375 202.9375 C 579.503906 202.617188 579.894531 202.273438 580.265625 201.910156 C 580.636719 201.542969 580.988281 201.160156 581.316406 200.753906 C 581.644531 200.351562 581.949219 199.929688 582.226562 199.488281 C 582.507812 199.050781 582.761719 198.597656 582.988281 198.128906 C 583.21875 197.660156 583.417969 197.183594 583.59375 196.691406 C 583.765625 196.199219 583.914062 195.703125 584.03125 195.195312 C 584.148438 194.6875 584.234375 194.175781 584.292969 193.65625 C 584.351562 193.140625 584.382812 192.621094 584.382812 192.101562 C 584.382812 191.582031 584.351562 191.0625 584.292969 190.542969 C 584.234375 190.027344 584.148438 189.515625 584.03125 189.007812 C 583.914062 188.5 583.765625 188 583.59375 187.511719 C 583.417969 187.019531 583.21875 186.539062 582.988281 186.070312 C 582.761719 185.605469 582.507812 185.152344 582.226562 184.710938 C 581.949219 184.273438 581.644531 183.851562 581.316406 183.445312 C 580.988281 183.042969 580.636719 182.65625 580.265625 182.292969 C 579.894531 181.929688 579.503906 181.585938 579.09375 181.265625 C 578.683594 180.945312 578.257812 180.648438 577.8125 180.378906 C 577.367188 180.105469 576.910156 179.859375 576.4375 179.640625 C 575.964844 179.421875 575.484375 179.226562 574.988281 179.0625 C 574.496094 178.898438 573.992188 178.761719 573.484375 178.65625 C 572.972656 178.546875 572.460938 178.46875 571.941406 178.417969 C 571.425781 178.371094 570.90625 178.347656 570.382812 178.359375 C 569.863281 178.367188 569.34375 178.40625 568.828125 178.476562 C 568.3125 178.546875 567.800781 178.640625 567.296875 178.769531 L 154.976562 177.53125 C 154.46875 177.394531 153.953125 177.285156 153.433594 177.207031 C 152.914062 177.128906 152.390625 177.078125 151.863281 177.058594 C 151.335938 177.042969 150.8125 177.050781 150.289062 177.09375 C 149.761719 177.136719 149.242188 177.207031 148.726562 177.308594 C 148.207031 177.410156 147.699219 177.539062 147.199219 177.699219 C 146.695312 177.859375 146.207031 178.046875 145.726562 178.261719 C 145.246094 178.480469 144.78125 178.722656 144.328125 178.992188 C 143.875 179.261719 143.441406 179.558594 143.023438 179.875 C 142.605469 180.195312 142.207031 180.539062 141.828125 180.902344 C 141.449219 181.269531 141.09375 181.65625 140.757812 182.0625 C 140.421875 182.46875 140.113281 182.890625 139.828125 183.335938 C 139.542969 183.777344 139.28125 184.234375 139.050781 184.707031 C 138.816406 185.175781 138.609375 185.660156 138.433594 186.15625 C 138.253906 186.652344 138.105469 187.15625 137.988281 187.667969 C 137.867188 188.179688 137.777344 188.699219 137.71875 189.222656 C 137.65625 189.746094 137.625 190.269531 137.625 190.796875 C 137.625 191.320312 137.65625 191.847656 137.71875 192.367188 C 137.777344 192.890625 137.867188 193.410156 137.988281 193.921875 C 138.105469 194.433594 138.253906 194.9375 138.433594 195.433594 C 138.609375 195.929688 138.816406 196.414062 139.050781 196.886719 C 139.28125 197.355469 139.542969 197.8125 139.828125 198.253906 C 140.113281 198.699219 140.421875 199.121094 140.757812 199.527344 C 141.09375 199.933594 141.449219 200.320312 141.828125 200.6875 C 142.207031 201.050781 142.605469 201.394531 143.023438 201.714844 C 143.441406 202.035156 143.875 202.328125 144.328125 202.597656 C 144.78125 202.867188 145.246094 203.109375 145.726562 203.328125 C 146.207031 203.542969 146.695312 203.730469 147.199219 203.890625 C 147.699219 204.050781 148.207031 204.179688 148.726562 204.28125 C 149.242188 204.382812 149.761719 204.453125 150.289062 204.496094 C 150.8125 204.539062 151.335938 204.550781 151.863281 204.53125 C 152.390625 204.511719 152.914062 204.460938 153.433594 204.382812 C 153.953125 204.304688 154.46875 204.195312 154.976562 204.058594 Z M 154.976562 204.058594 " fill-opacity="1" fill-rule="nonzero"/><path fill="#737373" d="M 154.976562 330.089844 L 567.296875 331.464844 C 568.199219 331.464844 569.09375 331.378906 569.980469 331.203125 C 570.863281 331.027344 571.722656 330.765625 572.558594 330.417969 C 573.390625 330.074219 574.183594 329.652344 574.933594 329.148438 C 575.683594 328.648438 576.378906 328.078125 577.015625 327.441406 C 577.652344 326.800781 578.222656 326.109375 578.726562 325.359375 C 579.226562 324.605469 579.648438 323.816406 579.996094 322.980469 C 580.339844 322.148438 580.601562 321.289062 580.777344 320.402344 C 580.953125 319.519531 581.042969 318.625 581.042969 317.722656 C 581.042969 316.820312 580.953125 315.925781 580.777344 315.039062 C 580.601562 314.15625 580.339844 313.296875 579.996094 312.460938 C 579.648438 311.628906 579.226562 310.835938 578.726562 310.085938 C 578.222656 309.335938 577.652344 308.640625 577.015625 308.003906 C 576.378906 307.363281 575.683594 306.796875 574.933594 306.292969 C 574.183594 305.792969 573.390625 305.367188 572.558594 305.023438 C 571.722656 304.679688 570.863281 304.417969 569.980469 304.242188 C 569.09375 304.066406 568.199219 303.976562 567.296875 303.976562 L 154.976562 302.601562 C 154.46875 302.464844 153.953125 302.355469 153.433594 302.277344 C 152.914062 302.199219 152.390625 302.148438 151.863281 302.132812 C 151.335938 302.113281 150.8125 302.125 150.289062 302.164062 C 149.761719 302.207031 149.242188 302.277344 148.726562 302.378906 C 148.207031 302.480469 147.699219 302.609375 147.199219 302.769531 C 146.695312 302.929688 146.207031 303.117188 145.726562 303.335938 C 145.246094 303.550781 144.78125 303.792969 144.328125 304.0625 C 143.875 304.332031 143.441406 304.628906 143.023438 304.949219 C 142.605469 305.265625 142.207031 305.609375 141.828125 305.976562 C 141.449219 306.339844 141.09375 306.726562 140.757812 307.132812 C 140.421875 307.539062 140.113281 307.964844 139.828125 308.40625 C 139.542969 308.847656 139.28125 309.304688 139.050781 309.777344 C 138.816406 310.25 138.609375 310.730469 138.433594 311.226562 C 138.253906 311.722656 138.105469 312.226562 137.988281 312.738281 C 137.867188 313.25 137.777344 313.769531 137.71875 314.292969 C 137.65625 314.816406 137.625 315.339844 137.625 315.867188 C 137.625 316.390625 137.65625 316.917969 137.71875 317.441406 C 137.777344 317.960938 137.867188 318.480469 137.988281 318.992188 C 138.105469 319.503906 138.253906 320.007812 138.433594 320.503906 C 138.609375 321 138.816406 321.484375 139.050781 321.957031 C 139.28125 322.429688 139.542969 322.886719 139.828125 323.328125 C 140.113281 323.769531 140.421875 324.191406 140.757812 324.597656 C 141.09375 325.007812 141.449219 325.390625 141.828125 325.757812 C 142.207031 326.121094 142.605469 326.464844 143.023438 326.785156 C 143.441406 327.105469 143.875 327.398438 144.328125 327.667969 C 144.78125 327.9375 145.246094 328.179688 145.726562 328.398438 C 146.207031 328.613281 146.695312 328.800781 147.199219 328.960938 C 147.699219 329.121094 148.207031 329.253906 148.726562 329.351562 C 149.242188 329.453125 149.761719 329.527344 150.289062 329.566406 C 150.8125 329.609375 151.335938 329.621094 151.863281 329.601562 C 152.390625 329.582031 152.914062 329.535156 153.433594 329.453125 C 153.953125 329.375 154.46875 329.265625 154.976562 329.128906 Z M 154.976562 330.089844 " fill-opacity="1" fill-rule="nonzero"/><path fill="#737373" d="M 482.359375 430.972656 L 154.976562 429.597656 C 154.46875 429.472656 153.960938 429.375 153.445312 429.304688 C 152.925781 429.238281 152.410156 429.199219 151.886719 429.1875 C 151.367188 429.179688 150.847656 429.199219 150.332031 429.246094 C 149.8125 429.296875 149.296875 429.375 148.789062 429.484375 C 148.28125 429.589844 147.777344 429.726562 147.285156 429.894531 C 146.789062 430.058594 146.308594 430.25 145.835938 430.46875 C 145.363281 430.6875 144.90625 430.933594 144.460938 431.207031 C 144.015625 431.476562 143.589844 431.773438 143.179688 432.09375 C 142.769531 432.414062 142.378906 432.757812 142.003906 433.121094 C 141.632812 433.488281 141.285156 433.871094 140.957031 434.277344 C 140.628906 434.679688 140.324219 435.101562 140.046875 435.542969 C 139.765625 435.980469 139.511719 436.433594 139.28125 436.902344 C 139.054688 437.371094 138.851562 437.847656 138.679688 438.339844 C 138.503906 438.828125 138.359375 439.328125 138.242188 439.835938 C 138.125 440.34375 138.039062 440.855469 137.976562 441.375 C 137.917969 441.890625 137.890625 442.410156 137.890625 442.929688 C 137.890625 443.449219 137.917969 443.96875 137.976562 444.488281 C 138.039062 445.003906 138.125 445.515625 138.242188 446.023438 C 138.359375 446.53125 138.503906 447.03125 138.679688 447.519531 C 138.851562 448.011719 139.054688 448.492188 139.28125 448.957031 C 139.511719 449.425781 139.765625 449.878906 140.046875 450.320312 C 140.324219 450.757812 140.628906 451.179688 140.957031 451.585938 C 141.285156 451.988281 141.632812 452.375 142.003906 452.738281 C 142.378906 453.101562 142.769531 453.445312 143.179688 453.765625 C 143.589844 454.085938 144.015625 454.382812 144.460938 454.652344 C 144.90625 454.925781 145.363281 455.171875 145.835938 455.390625 C 146.308594 455.609375 146.789062 455.804688 147.285156 455.96875 C 147.777344 456.132812 148.28125 456.269531 148.789062 456.375 C 149.296875 456.484375 149.8125 456.5625 150.332031 456.613281 C 150.847656 456.660156 151.367188 456.679688 151.886719 456.671875 C 152.410156 456.664062 152.925781 456.625 153.445312 456.554688 C 153.960938 456.484375 154.46875 456.386719 154.976562 456.261719 L 482.359375 457.5 C 482.867188 457.636719 483.382812 457.746094 483.902344 457.824219 C 484.421875 457.902344 484.945312 457.953125 485.472656 457.972656 C 485.996094 457.988281 486.523438 457.980469 487.046875 457.9375 C 487.570312 457.894531 488.09375 457.824219 488.609375 457.722656 C 489.125 457.621094 489.632812 457.492188 490.136719 457.332031 C 490.636719 457.171875 491.128906 456.984375 491.609375 456.765625 C 492.085938 456.550781 492.554688 456.308594 493.003906 456.039062 C 493.457031 455.769531 493.894531 455.472656 494.3125 455.15625 C 494.730469 454.835938 495.128906 454.492188 495.507812 454.128906 C 495.886719 453.761719 496.242188 453.375 496.574219 452.96875 C 496.910156 452.5625 497.21875 452.136719 497.507812 451.695312 C 497.792969 451.253906 498.050781 450.796875 498.285156 450.324219 C 498.519531 449.855469 498.722656 449.371094 498.902344 448.875 C 499.078125 448.378906 499.226562 447.875 499.347656 447.363281 C 499.464844 446.851562 499.558594 446.332031 499.617188 445.808594 C 499.675781 445.285156 499.707031 444.761719 499.707031 444.234375 C 499.707031 443.710938 499.675781 443.183594 499.617188 442.660156 C 499.558594 442.140625 499.464844 441.621094 499.347656 441.109375 C 499.226562 440.597656 499.078125 440.09375 498.902344 439.597656 C 498.722656 439.101562 498.519531 438.617188 498.285156 438.144531 C 498.050781 437.675781 497.792969 437.21875 497.507812 436.773438 C 497.21875 436.332031 496.910156 435.910156 496.574219 435.503906 C 496.242188 435.097656 495.886719 434.710938 495.507812 434.34375 C 495.128906 433.980469 494.730469 433.636719 494.3125 433.316406 C 493.894531 432.996094 493.457031 432.703125 493.003906 432.433594 C 492.554688 432.164062 492.085938 431.921875 491.609375 431.703125 C 491.128906 431.488281 490.636719 431.300781 490.136719 431.140625 C 489.632812 430.980469 489.125 430.851562 488.609375 430.75 C 488.09375 430.648438 487.570312 430.574219 487.046875 430.535156 C 486.523438 430.492188 485.996094 430.480469 485.472656 430.5 C 484.945312 430.519531 484.421875 430.570312 483.902344 430.648438 C 483.382812 430.726562 482.867188 430.835938 482.359375 430.972656 Z M 482.359375 430.972656 " fill-opacity="1" fill-rule="nonzero"/><path fill="#737373" d="M 438.515625 624.902344 L 160.609375 623.113281 C 159.886719 623.3125 159.183594 623.566406 158.503906 623.875 C 157.820312 624.1875 157.171875 624.550781 156.546875 624.96875 C 155.925781 625.386719 155.34375 625.855469 154.796875 626.367188 C 154.25 626.882812 153.75 627.433594 153.296875 628.03125 C 152.839844 628.625 152.4375 629.253906 152.085938 629.914062 C 151.734375 630.578125 151.4375 631.261719 151.195312 631.972656 C 150.957031 632.679688 150.773438 633.40625 150.652344 634.144531 C 150.53125 634.882812 150.46875 635.628906 150.46875 636.378906 C 150.46875 637.128906 150.53125 637.871094 150.652344 638.609375 C 150.773438 639.351562 150.957031 640.074219 151.195312 640.785156 C 151.4375 641.492188 151.734375 642.179688 152.085938 642.839844 C 152.4375 643.503906 152.839844 644.128906 153.296875 644.726562 C 153.75 645.320312 154.25 645.875 154.796875 646.386719 C 155.34375 646.902344 155.925781 647.367188 156.546875 647.785156 C 157.171875 648.203125 157.820312 648.566406 158.503906 648.878906 C 159.183594 649.191406 159.886719 649.445312 160.609375 649.640625 L 438.789062 651.015625 C 439.296875 651.140625 439.804688 651.238281 440.320312 651.308594 C 440.839844 651.375 441.355469 651.414062 441.878906 651.425781 C 442.398438 651.433594 442.917969 651.414062 443.433594 651.367188 C 443.953125 651.316406 444.46875 651.238281 444.976562 651.128906 C 445.484375 651.023438 445.988281 650.886719 446.480469 650.722656 C 446.976562 650.554688 447.457031 650.363281 447.929688 650.144531 C 448.402344 649.925781 448.859375 649.679688 449.304688 649.40625 C 449.75 649.136719 450.175781 648.839844 450.585938 648.519531 C 450.996094 648.199219 451.386719 647.855469 451.757812 647.492188 C 452.132812 647.128906 452.480469 646.742188 452.808594 646.339844 C 453.136719 645.933594 453.441406 645.511719 453.71875 645.074219 C 454 644.632812 454.253906 644.179688 454.484375 643.710938 C 454.710938 643.246094 454.914062 642.765625 455.085938 642.273438 C 455.261719 641.785156 455.40625 641.285156 455.523438 640.777344 C 455.640625 640.269531 455.726562 639.757812 455.789062 639.242188 C 455.847656 638.722656 455.875 638.203125 455.875 637.683594 C 455.875 637.164062 455.847656 636.644531 455.789062 636.125 C 455.726562 635.609375 455.640625 635.097656 455.523438 634.589844 C 455.40625 634.082031 455.261719 633.582031 455.085938 633.09375 C 454.914062 632.601562 454.710938 632.121094 454.484375 631.65625 C 454.253906 631.1875 454 630.734375 453.71875 630.292969 C 453.441406 629.855469 453.136719 629.433594 452.808594 629.027344 C 452.480469 628.625 452.132812 628.238281 451.757812 627.875 C 451.386719 627.511719 450.996094 627.167969 450.585938 626.847656 C 450.175781 626.527344 449.75 626.230469 449.304688 625.960938 C 448.859375 625.6875 448.402344 625.441406 447.929688 625.222656 C 447.457031 625.003906 446.976562 624.8125 446.480469 624.644531 C 445.988281 624.480469 445.484375 624.34375 444.976562 624.238281 C 444.46875 624.128906 443.953125 624.050781 443.433594 624 C 442.917969 623.953125 442.398438 623.933594 441.875 623.941406 C 441.355469 623.953125 440.839844 623.992188 440.320312 624.058594 C 439.804688 624.128906 439.296875 624.226562 438.789062 624.351562 Z M 438.515625 624.902344 " fill-opacity="1" fill-rule="nonzero"/></svg>